<svg width="62" height="62" viewBox="0 0 62 62" fill="none" xmlns="http://www.w3.org/2000/svg">
<circle cx="31" cy="31" r="31" fill="url(#paint0_linear_451_4278)"/>
<mask id="mask0_451_4278" style="mask-type:alpha" maskUnits="userSpaceOnUse" x="0" y="0" width="62" height="62">
<circle cx="31" cy="31" r="31" fill="url(#paint1_linear_451_4278)"/>
</mask>
<g mask="url(#mask0_451_4278)">
<path d="M167.481 -20.5504C166.378 -21.6044 164.622 -21.6546 163.368 -20.7512C160.96 -19.0949 158.502 -17.5891 155.944 -16.234C154.84 -15.6819 153.486 -16.1838 153.085 -17.3382C152.383 -19.4462 151.329 -21.4539 150.075 -23.2607C149.473 -24.114 149.624 -25.2684 150.376 -25.9711C156.446 -31.191 161.863 -37.1638 166.528 -43.7388C167.782 -45.4955 167.582 -48.0051 165.926 -49.4105C164.07 -51.0166 161.261 -50.6151 159.857 -48.6576C155.141 -42.0323 149.624 -36.0596 143.404 -30.94C142.802 -30.4381 141.999 -30.3377 141.297 -30.6891C139.892 -31.3416 138.387 -31.8937 136.883 -32.2952C135.578 -32.5963 134.926 -34.1021 135.629 -35.2565C137.384 -38.2178 138.989 -41.5304 140.946 -45.4454C145.41 -54.4296 148.47 -64.0664 150.075 -74.0545C150.426 -76.1625 149.122 -78.3207 147.015 -78.8728C144.607 -79.4751 142.25 -77.869 141.899 -75.51C140.444 -66.325 137.635 -57.4411 133.522 -49.1595C130.061 -42.2331 127.803 -37.6657 124.493 -33.6002C124.493 -33.6002 124.493 -33.55 124.442 -33.55C124.041 -33.0983 123.54 -32.8473 122.938 -32.8473L81.7548 -32.1948C81.203 -32.1948 80.6011 -32.4458 80.2499 -32.8473C79.8988 -33.2488 79.4473 -33.7508 79.2969 -33.9515C78.9959 -34.3531 78.6949 -34.7044 78.3939 -35.1059C75.6852 -38.6695 73.3778 -42.6848 70.4684 -48.0051C66.1043 -56.1361 62.9943 -64.9196 61.2888 -74.0545C60.8373 -76.3131 58.6804 -77.7686 56.4732 -77.3671C54.216 -76.9154 52.7613 -74.7571 53.1626 -72.5487C55.0186 -62.5606 58.4296 -52.9741 63.1949 -44.0902C65.6027 -39.573 67.7095 -35.909 69.9668 -32.5964C70.669 -31.5925 70.3179 -30.2374 69.2645 -29.6852C68.1108 -29.083 67.0072 -28.4305 65.9538 -27.6274C65.2516 -27.1255 64.3486 -27.1255 63.6464 -27.6274C56.2726 -32.9477 49.7516 -39.322 44.2338 -46.5998C42.9296 -48.3063 40.5218 -48.9086 38.6658 -47.7542C36.559 -46.4492 36.0574 -43.6385 37.5121 -41.7312C42.5283 -35.0557 48.347 -29.083 54.8179 -23.9132C55.4198 -23.4113 56.0719 -22.9094 56.7241 -22.4577C56.9749 -22.2569 57.326 -22.006 57.6771 -21.755C58.6804 -21.0021 59.0817 -19.647 58.58 -18.5428C57.8778 -16.9868 57.3762 -15.3305 57.025 -13.624C56.7742 -12.3692 55.47 -11.7167 54.3163 -12.1684C49.8519 -13.9251 45.5881 -16.1336 41.525 -18.7435C40.0703 -19.6972 38.0137 -19.4964 37.0105 -18.091C35.9069 -16.5853 36.3082 -14.4773 37.8632 -13.4734C43.5315 -9.75926 49.7014 -6.79797 56.1221 -4.68993C56.7742 -4.48917 57.2758 -3.93706 57.4263 -3.28457C60.0849 6.65333 69.2143 13.8809 79.949 13.7303L99.6124 13.4292C100.716 13.4292 101.619 14.3326 101.669 15.4368L101.719 18.097C101.719 19.0506 101.117 19.8537 100.164 20.1046C93.593 21.7108 86.9214 22.9655 80.2499 23.8188C61.6499 26.1627 47.72 26.7801 36.7647 25.711C36.0574 24.7423 34.9187 24.0999 33.5995 24.0697L25.8746 23.869C24.7208 23.5678 23.5671 24.0196 22.9652 24.9732C22.4636 25.7763 22.4636 26.7801 22.9652 27.6333C22.7645 27.8341 22.1124 28.587 22.0121 29.7414C21.9118 30.946 22.4636 31.749 22.614 32C22.0623 32.9536 22.0623 34.1582 22.6642 35.0617C23.2662 36.0153 24.3697 36.467 25.4733 36.3165L32.7267 36.5072C32.5059 37.3153 32.3254 38.1384 32.195 38.9766C31.894 41.0344 31.8438 43.0421 32.0946 45.1L32.2451 46.3045L34.703 46.0034L34.5526 44.7988C34.3519 42.9919 34.3519 41.185 34.6529 39.3781C34.8385 38.1585 35.1595 36.9639 35.5658 35.8045C36.1477 35.403 36.6293 34.8609 36.9453 34.2185C40.4265 34.5296 44.1736 34.7103 48.1966 34.7103C57.4263 34.7103 68.3114 33.9073 81.3033 32.251C84.2127 31.8996 87.1723 31.4479 90.0816 30.946C91.2855 30.7452 92.4392 31.6487 92.4392 32.9034V33.7567L92.7904 54.3352C92.7904 55.0379 92.3891 55.6402 91.737 55.8911C87.9247 57.2965 84.4635 59.6555 81.3535 63.0183C78.5444 66.0298 76.7888 68.5394 75.8858 70.547C73.8794 75.0141 72.1739 79.5313 70.8195 83.9983H80.4506C82.5072 78.2765 85.1658 73.3076 88.5266 69.6938C89.4797 68.6899 90.4328 67.8367 91.436 67.134C92.4392 66.5819 93.7434 67.2344 93.8438 68.439C94.2451 73.6589 94.7467 78.8286 95.2985 83.9983H117.771C118.222 78.5274 118.624 73.0566 118.925 67.7865C119.025 66.5819 120.379 65.829 121.383 66.5317C122.486 67.2344 123.54 68.1378 124.593 69.1918C128.205 72.8056 131.164 78.0255 133.421 84.0485H144.106C142.676 79.6668 140.805 75.4005 138.498 71.4354C137.72 72.108 136.707 72.9562 135.839 73.689C134.836 74.5423 134.033 75.2449 134.033 75.2449L132.93 73.9901C132.93 73.9901 133.732 73.2875 134.736 72.4342C135.729 71.6261 136.807 70.6976 137.64 70.0049C137.836 70.3211 138.026 70.6474 138.217 70.9686C138.026 70.6424 137.836 70.3161 137.635 69.9949C139.24 68.6397 141.397 66.6823 143.705 64.3735C145.711 62.3658 147.467 60.3582 148.921 58.5011C152.082 54.4356 156.345 48.9145 154.54 41.8375C152.784 35.0115 148.119 33.1042 138.789 29.39C137.284 28.7878 135.629 28.1353 133.823 27.3824C127.703 24.8728 117.319 21.8111 111.099 20.0544C110.247 19.8035 109.645 19.0506 109.645 18.1472L109.595 15.487C109.595 14.3828 110.447 13.4794 111.551 13.4794L131.766 13.1782C143.404 12.9775 152.834 4.19396 154.188 -6.99873C154.289 -7.70141 154.74 -8.30371 155.392 -8.60486C159.506 -10.5121 163.468 -12.8209 167.23 -15.4309C168.735 -16.6857 168.986 -19.0447 167.481 -20.5504ZM70.4182 -22.809C69.2645 -22.809 68.3114 -23.7125 68.2613 -24.8669C68.2111 -26.0213 69.1642 -27.0251 70.3179 -27.0251C71.4716 -27.0753 72.4749 -26.1217 72.4749 -24.9673C72.525 -23.7627 71.5719 -22.809 70.4182 -22.809ZM100.365 -23.6121H96.2014C94.7968 -23.6121 93.2418 -23.5619 91.737 -23.5117L91.6367 -25.3186C93.1415 -25.3688 94.6965 -25.419 96.2515 -25.4692H99.2612L98.9101 -26.8745L100.666 -27.2761L101.519 -23.6121H100.365ZM128.475 68.8556C128.526 68.8556 129.98 67.6008 130.331 67.2996C130.482 67.1992 131.285 66.4966 131.385 66.3962C131.636 66.1954 133.191 64.8402 133.391 64.6897C133.441 64.5893 134.144 64.0372 134.244 63.9368L135.297 65.2418C135.197 65.292 134.495 65.8943 134.395 65.9947C134.244 66.1452 132.689 67.4502 132.438 67.651C132.288 67.7513 131.485 68.454 131.385 68.5544C131.084 68.8556 129.579 70.1104 129.579 70.1104L128.475 68.8556ZM136.652 68.5544C136.301 68.8556 135.147 69.8092 134.696 70.2107C134.445 70.4115 133.843 70.9134 133.642 71.1142C132.99 71.6663 131.836 72.6701 131.836 72.6701L130.733 71.4153C130.733 71.4153 131.886 70.4115 132.539 69.8594C132.789 69.6586 133.341 69.1567 133.592 68.9559C134.094 68.5042 135.247 67.5506 135.598 67.2494C135.749 67.0989 136.251 66.6471 136.451 66.4966L137.555 67.8015C137.354 67.9521 136.852 68.4039 136.652 68.5544ZM119.476 33.9575C119.476 32.6023 120.831 31.6487 122.135 32.0502C125.245 33.054 128.154 34.108 130.462 35.0115C132.318 35.8647 134.023 36.5172 135.528 37.1195C144.607 40.7333 145.611 41.3858 146.213 43.795C146.865 46.4049 145.46 48.8141 142.099 53.1808C140.845 54.7869 139.29 56.5436 137.535 58.3003C135.634 60.2528 133.783 61.9041 132.333 63.1086L130.161 64.9758L127.302 67.4351L126.198 66.1804L129.057 63.721L131.154 61.9141C127.949 58.7621 124.407 56.5135 120.58 55.2888C119.928 55.0881 119.476 54.4356 119.476 53.7329V33.9575ZM123.339 -23.6623C122.185 -23.6121 121.232 -24.5657 121.182 -25.7201C121.132 -26.8745 122.085 -27.8784 123.239 -27.8784C124.392 -27.9286 125.396 -26.9749 125.396 -25.8205C125.446 -24.6661 124.493 -23.6623 123.339 -23.6623Z" fill="white"/>
</g>
<defs>
<linearGradient id="paint0_linear_451_4278" x1="31" y1="0" x2="31" y2="62" gradientUnits="userSpaceOnUse">
<stop stop-color="#8D4AF8"/>
<stop offset="1" stop-color="#532C92"/>
</linearGradient>
<linearGradient id="paint1_linear_451_4278" x1="31" y1="0" x2="31" y2="62" gradientUnits="userSpaceOnUse">
<stop stop-color="#8D4AF8"/>
<stop offset="1" stop-color="#532C92"/>
</linearGradient>
</defs>
</svg>
