<svg width="30" height="30" viewBox="0 0 30 30" fill="none" xmlns="http://www.w3.org/2000/svg">
<circle cx="15" cy="15" r="15" fill="#8D4AF8"/>
<path d="M13.2379 18.8889H10.6761C9.72666 18.8889 9.25195 18.8889 9.15207 18.8129C9.03986 18.7275 9.01244 18.6771 9.00029 18.5339C8.98948 18.4064 9.28043 17.9156 9.86233 16.934C10.4631 15.9205 10.9733 14.4448 10.9733 12.3556C10.9733 11.2004 11.4502 10.0925 12.2991 9.27571C13.148 8.45889 14.2994 8 15.5 8C16.7005 8 17.8519 8.45889 18.7008 9.27571C19.5498 10.0925 20.0267 11.2004 20.0267 12.3556C20.0267 14.4448 20.5368 15.9205 21.1377 16.934C21.7195 17.9156 22.0105 18.4064 21.9997 18.5339C21.9876 18.6771 21.9601 18.7275 21.8479 18.8129C21.748 18.8889 21.2733 18.8889 20.3239 18.8889H17.7633M13.2379 18.8889L13.2366 19.6667C13.2366 20.9554 14.25 22 15.5 22C16.75 22 17.7633 20.9554 17.7633 19.6667V18.8889M13.2379 18.8889H17.7633" stroke="white" stroke-width="2" stroke-linecap="round" stroke-linejoin="round"/>
</svg>
