<svg width="501" height="501" viewBox="0 0 501 501" fill="none" xmlns="http://www.w3.org/2000/svg">
<path fill-rule="evenodd" clip-rule="evenodd" d="M491.233 56.9001C497.305 50.6133 500.665 42.1932 500.589 33.4534C500.513 24.7135 497.007 16.3531 490.827 10.1728C484.647 3.99251 476.287 0.486875 467.547 0.410928C458.807 0.334981 450.387 3.69481 444.1 9.76674L251 202.867L57.8999 9.76674C51.6132 3.69481 43.1931 0.334981 34.4532 0.410928C25.7133 0.486875 17.3529 3.99251 11.1727 10.1728C4.99238 16.3531 1.48674 24.7135 1.4108 33.4534C1.33485 42.1932 4.69468 50.6133 10.7666 56.9001L203.867 250L10.7666 443.1C7.58294 446.175 5.04353 449.853 3.29656 453.92C1.54959 457.987 0.630051 462.361 0.591591 466.787C0.55313 471.213 1.39651 475.602 3.07254 479.698C4.74857 483.795 7.22368 487.517 10.3534 490.647C13.4832 493.776 17.2049 496.251 21.3015 497.927C25.398 499.603 29.7873 500.447 34.2133 500.408C38.6393 500.37 43.0133 499.45 47.0801 497.703C51.1469 495.956 54.825 493.417 57.8999 490.233L251 297.133L444.1 490.233C450.387 496.305 458.807 499.665 467.547 499.589C476.287 499.513 484.647 496.008 490.827 489.827C497.007 483.647 500.513 475.287 500.589 466.547C500.665 457.807 497.305 449.387 491.233 443.1L298.133 250L491.233 56.9001Z" fill="white"/>
</svg>
