<svg width="800" height="800" viewBox="0 0 800 800" fill="none" xmlns="http://www.w3.org/2000/svg">
<path d="M266.666 133.333V466.667L439.853 668.717C456.286 687.89 482.14 696.133 506.64 690.007L508.223 689.61C552.95 678.43 573.096 626.313 547.526 587.957L466.666 466.667H618.68C660.75 466.667 692.303 428.18 684.053 386.927L644.053 186.926C637.82 155.765 610.46 133.334 578.68 133.334L266.666 133.333Z" fill="white"/>
<path d="M266.666 466.667V133.333L133.333 133.334V466.667H266.666Z" fill="white"/>
<path d="M266.666 466.667V133.333M266.666 466.667H133.333V133.334L266.666 133.333M266.666 466.667L439.853 668.717C456.286 687.89 482.14 696.133 506.64 690.007L508.223 689.61C552.95 678.43 573.096 626.313 547.526 587.957L466.666 466.667H618.68C660.75 466.667 692.303 428.18 684.053 386.927L644.053 186.926C637.82 155.765 610.46 133.334 578.68 133.334L266.666 133.333" stroke="white" stroke-width="50" stroke-linecap="round" stroke-linejoin="round"/>
</svg>
