<svg width="800" height="800" viewBox="0 0 800 800" fill="none" xmlns="http://www.w3.org/2000/svg">
<path d="M266.666 333.333V666.667H578.68C610.46 666.667 637.82 644.237 644.053 613.073L684.053 413.073C692.303 371.82 660.75 333.333 618.68 333.333H466.666L547.526 212.045C573.096 173.686 552.95 121.57 508.223 110.389L506.64 109.992C482.14 103.868 456.286 112.11 439.853 131.282L266.666 333.333Z" fill="white"/>
<path d="M266.666 666.667V333.333L133.333 333.333V666.667H266.666Z" fill="white"/>
<path d="M266.666 333.333V666.667M266.666 333.333L133.333 333.333V666.667H266.666M266.666 333.333L439.853 131.282C456.286 112.11 482.14 103.868 506.64 109.992L508.223 110.389C552.95 121.57 573.096 173.686 547.526 212.045L466.666 333.333H618.68C660.75 333.333 692.303 371.82 684.053 413.073L644.053 613.073C637.82 644.237 610.46 666.667 578.68 666.667H266.666" stroke="white" stroke-width="50" stroke-linecap="round" stroke-linejoin="round"/>
</svg>
