<svg width="800" height="800" viewBox="0 0 800 800" fill="none" xmlns="http://www.w3.org/2000/svg">
<path fill-rule="evenodd" clip-rule="evenodd" d="M333.56 114.905C343.737 124.234 344.427 140.049 335.097 150.227L190.165 308.333H666.667C680.473 308.333 691.667 319.526 691.667 333.333C691.667 347.14 680.473 358.333 666.667 358.333H133.334C123.42 358.333 114.442 352.473 110.45 343.4C106.458 334.327 108.206 323.749 114.905 316.44L298.238 116.44C307.568 106.262 323.382 105.575 333.56 114.905Z" fill="#6D55D2"/>
<path fill-rule="evenodd" clip-rule="evenodd" d="M689.55 456.6C685.56 447.527 676.58 441.667 666.667 441.667H133.334C119.527 441.667 108.334 452.86 108.334 466.667C108.334 480.473 119.527 491.667 133.334 491.667H609.837L464.907 649.773C455.577 659.95 456.263 675.767 466.44 685.097C476.62 694.427 492.433 693.737 501.763 683.56L685.097 483.56C691.797 476.253 693.543 465.677 689.55 456.6Z" fill="#6D55D2"/>
</svg>
