<svg width="73" height="47" viewBox="0 0 73 47" fill="none" xmlns="http://www.w3.org/2000/svg">
<path d="M49.6047 25.8749C50.179 25.8749 50.6506 26.3502 50.6506 26.9289C50.6506 27.0116 50.6506 27.0736 50.6301 27.1562C50.3225 27.0322 49.9739 26.9496 49.6047 26.9496C49.2356 26.9496 48.9075 27.0116 48.5793 27.1562C48.5588 27.0736 48.5588 27.0116 48.5588 26.9289C48.5588 26.3502 49.0305 25.8749 49.6047 25.8749ZM24.4211 27.1562C24.1135 27.0322 23.7649 26.9496 23.3958 26.9496C23.0266 26.9496 22.6985 27.0116 22.3704 27.1562C22.3499 27.0736 22.3499 27.0116 22.3499 26.9289C22.3499 26.3502 22.8215 25.8749 23.3958 25.8749C23.97 25.8749 24.4416 26.3502 24.4416 26.9289C24.4622 27.0116 24.4417 27.0736 24.4211 27.1562ZM36.5002 29.5536C36.1516 29.2643 35.7004 29.099 35.2288 29.099C34.3879 29.099 33.6497 29.6156 33.342 30.3597C30.5735 29.9463 28.2971 28.9956 26.2258 27.9209C25.7747 27.6936 25.9387 27.0116 26.4514 27.0116H46.5491C47.0618 27.0116 47.2258 27.6936 46.7747 27.9209C44.7034 28.9956 42.427 29.9463 39.6584 30.3597C39.3508 29.6156 38.6126 29.099 37.7717 29.099C37.3001 29.099 36.8489 29.2643 36.5002 29.5536Z" fill="white"/>
<path fill-rule="evenodd" clip-rule="evenodd" d="M36.5 46.3148H38C38.5 46.3148 38.592 46.2941 39.0227 46.2941H49.2766C54.5266 46.2941 58.9563 42.7187 60.3098 37.8412C60.3918 37.5725 60.5969 37.3659 60.843 37.2832C64.637 36.1258 68.1438 34.4725 71.343 32.3024C72.0608 31.827 72.3274 30.8557 71.8967 30.1117C71.425 29.3056 70.3792 29.0576 69.6204 29.5743C67.1594 31.2484 64.4934 32.5711 61.6428 33.6044C61.1711 33.7698 60.6584 33.4598 60.5764 32.9637C60.4329 32.0337 60.1868 31.145 59.8381 30.2977C59.6946 29.9463 59.7971 29.5536 60.0842 29.347C63.55 26.7222 67.6311 23.0021 71.384 18.0007C72.0608 17.0913 71.8762 15.8099 70.9739 15.1279C70.0715 14.4666 68.8206 14.7146 68.1438 15.6033C64.719 20.15 60.9456 23.5808 57.7463 26.0195C57.4387 26.2469 57.0286 26.2262 56.721 25.9782C56.1467 25.4822 55.511 25.0275 54.8342 24.6555C54.4036 24.4075 54.2805 23.8288 54.5881 23.4361C56.6799 20.7494 58.5051 17.608 60.0022 14.1152C62.6067 7.9977 63.304 2.91355 63.345 2.68622C63.4885 1.57018 62.7297 0.557488 61.6223 0.412817C60.5149 0.268146 59.51 1.03283 59.3665 2.14887C59.3665 2.1902 58.6897 7.00567 56.2698 12.6272C54.9573 15.7066 52.9475 19.406 49.9739 22.6921C49.6663 23.0228 49.2356 23.2295 48.7844 23.2295H24.1956C23.7444 23.2295 23.3137 23.0435 23.0061 22.6921C20.053 19.4267 18.0432 15.7066 16.7102 12.6272C14.3108 7.00567 13.634 2.21087 13.6135 2.16953C13.47 1.0535 12.4446 0.288814 11.3577 0.433485C10.2502 0.578155 9.49145 1.61152 9.63501 2.70688C9.65552 2.91356 10.3733 8.01837 12.9778 14.1359C14.4749 17.6493 16.2795 20.7701 18.3918 23.4568C18.6995 23.8495 18.5764 24.4282 18.1458 24.6762C17.469 25.0482 16.8333 25.5029 16.259 25.9989C15.9719 26.2469 15.5413 26.2676 15.2336 26.0402C12.0344 23.6015 8.24048 20.15 4.79516 15.5619C4.11841 14.6732 2.86743 14.4872 1.98559 15.1692C1.10376 15.8513 0.919188 17.112 1.59595 18.0007C5.34888 22.9815 9.42993 26.7016 12.8957 29.347C13.1829 29.5743 13.2854 29.967 13.1418 30.2977C12.7932 31.145 12.5471 32.0337 12.4036 32.9637C12.3215 33.4598 11.8088 33.7904 11.3372 33.6044C8.50708 32.5917 5.86157 31.2484 3.40063 29.6157C2.68286 29.1403 1.71899 29.2643 1.2063 29.9463C0.632079 30.6903 0.816648 31.765 1.57544 32.2817C4.79516 34.4518 8.32251 36.1258 12.137 37.3039C12.4036 37.3865 12.6086 37.5932 12.6702 37.8619C14.0237 42.7394 18.4329 46.3148 23.7034 46.3148H33.9573H35H36.5ZM50.6506 26.9289C50.6506 26.3502 50.179 25.8749 49.6047 25.8749C49.0305 25.8749 48.5588 26.3502 48.5588 26.9289C48.5588 27.0116 48.5588 27.0736 48.5793 27.1562C48.9075 27.0116 49.2356 26.9496 49.6047 26.9496C49.9739 26.9496 50.3225 27.0322 50.6301 27.1562C50.6506 27.0736 50.6506 27.0116 50.6506 26.9289ZM23.3958 26.9496C23.7649 26.9496 24.1135 27.0322 24.4211 27.1562C24.4417 27.0736 24.4622 27.0116 24.4416 26.9289C24.4416 26.3502 23.97 25.8749 23.3958 25.8749C22.8215 25.8749 22.3499 26.3502 22.3499 26.9289C22.3499 27.0116 22.3499 27.0736 22.3704 27.1562C22.6985 27.0116 23.0266 26.9496 23.3958 26.9496ZM35.2288 29.099C35.7004 29.099 36.1516 29.2643 36.5002 29.5536C36.8489 29.2643 37.3001 29.099 37.7717 29.099C38.6126 29.099 39.3508 29.6156 39.6584 30.3597C42.427 29.9463 44.7034 28.9956 46.7747 27.9209C47.2258 27.6936 47.0618 27.0116 46.5491 27.0116H26.4514C25.9387 27.0116 25.7747 27.6936 26.2258 27.9209C28.2971 28.9956 30.5735 29.9463 33.342 30.3597C33.6497 29.6156 34.3879 29.099 35.2288 29.099Z" fill="white"/>
<path d="M46.5488 26.9907H26.4511C25.9385 26.9907 25.7744 27.6727 26.2256 27.9001C28.2969 28.9748 30.5732 29.9255 33.3418 30.3388C33.6494 29.5948 34.3877 29.0781 35.2285 29.0781C35.7002 29.0781 36.1513 29.2435 36.5 29.5328C36.8486 29.2435 37.2998 29.0781 37.7715 29.0781C38.6123 29.0781 39.3506 29.5948 39.6582 30.3388C42.4267 29.9255 44.7031 28.9748 46.7744 27.9001C47.2256 27.6727 47.0615 26.9907 46.5488 26.9907Z" fill="#949597"/>
<path d="M49.6045 26.9495C49.9736 26.9495 50.3018 27.0115 50.6299 27.1561C50.6504 27.0735 50.6504 27.0115 50.6504 26.9288C50.6504 26.3501 50.1787 25.8748 49.6045 25.8748C49.0303 25.8748 48.5586 26.3501 48.5586 26.9288C48.5586 27.0115 48.5586 27.0735 48.5791 27.1561C48.9072 27.0321 49.2559 26.9495 49.6045 26.9495Z" fill="#949597"/>
<path d="M23.416 26.9495C23.7852 26.9495 24.1133 27.0115 24.4414 27.1561C24.4619 27.0735 24.4619 27.0115 24.4619 26.9288C24.4619 26.3501 23.9902 25.8748 23.416 25.8748C22.8418 25.8748 22.3701 26.3501 22.3701 26.9288C22.3701 27.0115 22.3701 27.0735 22.3906 27.1561C22.6982 27.0321 23.0469 26.9495 23.416 26.9495Z" fill="#949597"/>
</svg>
