<svg width="12" height="12" viewBox="0 0 12 12" fill="none" xmlns="http://www.w3.org/2000/svg">
<g clip-path="url(#clip0_453_4220)">
<path d="M10.2175 6.73887C10.9794 6.73887 11.5973 6.12145 11.5973 5.3595C11.5973 4.59755 10.9794 3.97971 10.2175 3.97971C9.45573 3.97971 8.83789 4.59755 8.83789 5.3595C8.83791 6.12145 9.45573 6.73887 10.2175 6.73887Z" fill="#5A3FD1"/>
<path d="M11.9845 8.06838C11.923 7.69896 11.6177 7.18193 11.3865 6.95095C11.3561 6.92035 11.22 6.91327 11.1832 6.93605C10.9022 7.10888 10.5721 7.2106 10.2179 7.2106C9.86397 7.2106 9.53385 7.10888 9.25281 6.93605C9.2159 6.91327 9.08001 6.92035 9.04956 6.95095C8.98495 7.01557 8.91445 7.10159 8.8457 7.20134C9.03168 7.55149 9.17917 7.92345 9.2324 8.24374C9.2856 8.56484 9.26833 8.86882 9.18229 9.14595C9.48787 9.2565 9.85431 9.30502 10.2178 9.30502C11.166 9.30502 12.1363 8.97626 11.9845 8.06838Z" fill="#5A3FD1"/>
<path d="M5.96491 6.15682C7.19977 6.15682 8.20092 5.15566 8.20092 3.92084C8.20092 2.68638 7.19977 1.68523 5.96491 1.68523C4.73027 1.68523 3.72949 2.68638 3.72949 3.92084C3.72949 5.15566 4.73025 6.15682 5.96491 6.15682Z" fill="#5A3FD1"/>
<path d="M7.8578 6.49929C7.80929 6.45099 7.58895 6.43863 7.52904 6.47571C7.07323 6.75617 6.53832 6.92035 5.96447 6.92035C5.39105 6.92035 4.85588 6.75617 4.4003 6.47571C4.34042 6.43861 4.12008 6.45099 4.07157 6.49929C3.69608 6.87438 3.20119 7.71293 3.10163 8.31073C2.85615 9.78321 4.42899 10.3148 5.96447 10.3148C7.50038 10.3148 9.0732 9.78321 8.82772 8.31073C8.72815 7.71293 8.23327 6.87438 7.8578 6.49929Z" fill="#5A3FD1"/>
<path d="M1.78213 6.73887C2.5439 6.73887 3.16171 6.12145 3.16171 5.3595C3.16171 4.59755 2.5439 3.97971 1.78213 3.97971C1.02016 3.97971 0.402344 4.59755 0.402344 5.3595C0.402344 6.12145 1.02016 6.73887 1.78213 6.73887Z" fill="#5A3FD1"/>
<path d="M2.69753 8.24374C2.7541 7.90735 2.91374 7.51125 3.11387 7.14499C3.05809 7.0688 3.00233 7.00242 2.95086 6.95095C2.92042 6.92035 2.78453 6.91327 2.74761 6.93605C2.46657 7.10888 2.13646 7.2106 1.78241 7.2106C1.42832 7.2106 1.09799 7.10888 0.817183 6.93605C0.780433 6.91327 0.644167 6.92035 0.613722 6.95095C0.381996 7.18191 0.0774252 7.69896 0.0157377 8.06838C-0.135856 8.97626 0.834269 9.30499 1.78241 9.30499C2.12078 9.30499 2.46247 9.26335 2.7541 9.16812C2.66221 8.88535 2.64275 8.57426 2.69753 8.24374Z" fill="#5A3FD1"/>
</g>
<defs>
<clipPath id="clip0_453_4220">
<rect width="12" height="12" fill="white"/>
</clipPath>
</defs>
</svg>
