<svg width="393" height="253" viewBox="0 0 393 253" fill="none" xmlns="http://www.w3.org/2000/svg">
<path d="M267.05 139.284C270.142 139.284 272.681 141.843 272.681 144.958C272.681 145.403 272.681 145.737 272.57 146.181C270.914 145.514 269.038 145.069 267.05 145.069C265.063 145.069 263.297 145.403 261.53 146.181C261.419 145.737 261.419 145.403 261.419 144.958C261.419 141.843 263.959 139.284 267.05 139.284ZM131.473 146.181C129.817 145.514 127.94 145.069 125.953 145.069C123.965 145.069 122.199 145.403 120.433 146.181C120.322 145.737 120.322 145.403 120.322 144.958C120.322 141.843 122.861 139.284 125.953 139.284C129.044 139.284 131.583 141.843 131.583 144.958C131.694 145.403 131.584 145.737 131.473 146.181ZM196.501 159.087C194.625 157.529 192.196 156.639 189.657 156.639C185.13 156.639 181.155 159.42 179.499 163.426C164.595 161.2 152.339 156.083 141.188 150.298C138.76 149.074 139.643 145.403 142.403 145.403H250.6C253.36 145.403 254.243 149.074 251.815 150.298C240.664 156.083 228.409 161.2 213.504 163.426C211.848 159.42 207.874 156.639 203.346 156.639C200.808 156.639 198.379 157.529 196.501 159.087Z" fill="white"/>
<path fill-rule="evenodd" clip-rule="evenodd" d="M196.5 249.312H204.575C207.267 249.312 207.762 249.2 210.081 249.2H265.284C293.547 249.2 317.395 229.954 324.681 203.699C325.123 202.252 326.227 201.14 327.552 200.695C347.977 194.465 366.856 185.565 384.079 173.883C387.944 171.324 389.379 166.096 387.06 162.091C384.521 157.752 378.891 156.417 374.806 159.198C361.557 168.21 347.204 175.33 331.858 180.892C329.318 181.782 326.558 180.114 326.117 177.443C325.344 172.437 324.019 167.653 322.142 163.092C321.369 161.201 321.921 159.087 323.467 157.975C342.125 143.845 364.096 123.82 384.3 96.8976C387.944 92.0023 386.95 85.1046 382.092 81.4334C377.234 77.8736 370.5 79.2086 366.856 83.9925C348.419 108.467 328.104 126.935 310.881 140.063C309.225 141.287 307.017 141.175 305.361 139.84C302.269 137.17 298.847 134.723 295.203 132.72C292.885 131.385 292.222 128.27 293.878 126.156C305.14 111.694 314.966 94.7837 323.025 75.9821C337.047 43.0517 340.801 15.6838 341.022 14.4601C341.794 8.45248 337.709 3.00118 331.747 2.22242C325.786 1.44366 320.376 5.55994 319.603 11.5676C319.603 11.79 315.96 37.7116 302.932 67.9722C295.866 84.5485 285.046 104.462 269.038 122.151C267.382 123.931 265.063 125.044 262.634 125.044H130.258C127.829 125.044 125.511 124.043 123.855 122.151C107.956 104.574 97.1366 84.5485 89.9603 67.9722C77.043 37.7116 73.3994 11.9013 73.289 11.6788C72.5165 5.6712 66.9962 1.55492 61.1448 2.33368C55.1825 3.11243 51.0977 8.67501 51.8706 14.5713C51.981 15.6839 55.8452 43.1629 69.8667 76.0935C77.9265 95.006 87.6416 111.805 99.0133 126.268C100.67 128.382 100.007 131.497 97.689 132.832C94.0454 134.834 90.623 137.282 87.5313 139.952C85.9856 141.287 83.6675 141.398 82.011 140.174C64.7879 127.047 44.3631 108.467 25.815 83.7696C22.1716 78.9858 15.4369 77.9845 10.6895 81.6557C5.94209 85.3274 4.94844 92.1138 8.59183 96.8976C28.796 123.709 50.7665 143.734 69.4247 157.975C70.9709 159.198 71.5227 161.312 70.7496 163.092C68.8729 167.653 67.548 172.437 66.7755 177.443C66.3335 180.114 63.5733 181.893 61.0345 180.892C45.7983 175.441 31.5561 168.21 18.3074 159.421C14.4433 156.862 9.25422 157.529 6.49412 161.201C3.40277 165.205 4.39641 170.991 8.48141 173.772C25.815 185.454 44.8047 194.465 65.3402 200.806C66.7755 201.251 67.8791 202.364 68.2107 203.81C75.4974 230.066 99.2346 249.312 127.609 249.312H182.811H188.425H196.5ZM272.681 144.958C272.681 141.843 270.142 139.284 267.05 139.284C263.959 139.284 261.419 141.843 261.419 144.958C261.419 145.403 261.419 145.737 261.53 146.181C263.296 145.403 265.063 145.069 267.05 145.069C269.037 145.069 270.914 145.514 272.57 146.181C272.681 145.737 272.681 145.403 272.681 144.958ZM125.953 145.069C127.94 145.069 129.816 145.514 131.472 146.181C131.583 145.737 131.694 145.403 131.583 144.958C131.583 141.843 129.044 139.284 125.953 139.284C122.861 139.284 120.322 141.843 120.322 144.958C120.322 145.403 120.322 145.737 120.432 146.181C122.199 145.403 123.965 145.069 125.953 145.069ZM189.656 156.64C192.195 156.64 194.624 157.529 196.501 159.087C198.378 157.529 200.807 156.64 203.346 156.64C207.873 156.64 211.847 159.42 213.503 163.426C228.408 161.201 240.663 156.083 251.814 150.298C254.243 149.074 253.36 145.403 250.6 145.403H142.403C139.643 145.403 138.76 149.074 141.188 150.298C152.339 156.083 164.594 161.201 179.499 163.426C181.155 159.42 185.129 156.64 189.656 156.64Z" fill="white"/>
<path d="M250.599 145.291H142.401C139.642 145.291 138.758 148.962 141.187 150.186C152.338 155.971 164.593 161.088 179.498 163.313C181.154 159.308 185.129 156.527 189.655 156.527C192.194 156.527 194.623 157.417 196.5 158.975C198.377 157.417 200.806 156.527 203.345 156.527C207.872 156.527 211.847 159.308 213.503 163.313C228.407 161.088 240.662 155.971 251.813 150.186C254.242 148.962 253.359 145.291 250.599 145.291Z" fill="#949597"/>
<path d="M267.049 145.069C269.036 145.069 270.803 145.403 272.569 146.181C272.679 145.736 272.679 145.403 272.679 144.957C272.679 141.842 270.14 139.284 267.049 139.284C263.957 139.284 261.418 141.842 261.418 144.957C261.418 145.403 261.418 145.736 261.528 146.181C263.295 145.513 265.172 145.069 267.049 145.069Z" fill="#949597"/>
<path d="M126.061 145.069C128.049 145.069 129.815 145.403 131.582 146.181C131.692 145.736 131.692 145.403 131.692 144.957C131.692 141.842 129.153 139.284 126.061 139.284C122.97 139.284 120.431 141.842 120.431 144.957C120.431 145.403 120.431 145.736 120.541 146.181C122.197 145.513 124.074 145.069 126.061 145.069Z" fill="#949597"/>
</svg>
