<svg width="282" height="316" viewBox="0 0 282 316" fill="none" xmlns="http://www.w3.org/2000/svg">
<path d="M279.92 115.87C282.52 112.07 281.32 106.87 277.22 104.57L277.52 104.97C274.02 103.07 269.52 104.27 267.22 107.57C264.82 111.07 262.22 114.47 259.62 117.67C258.82 118.67 257.22 118.47 256.62 117.37C253.52 111.57 249.42 106.57 244.62 102.57C243.12 101.27 242.62 99.17 243.52 97.37C249.42 85.07 254.22 72.27 257.72 58.97C259.02 53.97 256.62 48.57 251.82 46.57C246.12 44.27 239.82 47.57 238.32 53.37C235.12 65.77 230.62 77.77 225.12 89.17C224.32 90.87 222.42 91.77 220.52 91.47C216.22 90.77 211.82 90.57 207.42 91.07C204.72 91.37 202.42 89.07 202.72 86.37C203.12 82.77 203.52 78.97 203.92 74.87C206.22 52.87 205.12 30.57 200.62 8.77C199.52 3.37 194.22 -0.229998 188.72 0.970002C183.22 2.07 179.82 7.37 180.92 12.87C185.02 32.67 186.02 52.87 183.92 72.87C183.22 79.57 182.62 85.37 181.92 90.57C181.82 91.47 181.62 92.37 181.52 93.27C181.32 94.67 181.12 95.97 180.92 97.27C180.62 98.77 179.62 99.97 178.22 100.57L103.62 129.67C102.52 130.07 101.32 130.07 100.22 129.57C99.52 129.27 98.72 128.87 98.32 128.57C97.32 127.97 96.32 127.37 95.42 126.77C94.62 126.27 93.9199 125.77 93.1199 125.27C85.7199 120.37 78.32 114.27 69.22 106.37C54.12 93.17 41.12 77.67 30.62 60.37C27.52 55.27 20.62 53.87 15.72 57.67C11.62 60.87 10.92 66.77 13.62 71.17C25.12 90.07 39.32 106.97 55.92 121.47C62.82 127.57 68.92 132.57 74.82 136.97C77.02 138.67 77.12 141.87 74.92 143.67C72.62 145.57 70.62 147.57 68.72 149.77C67.62 151.07 65.82 151.57 64.22 151.07C47.42 145.97 31.42 138.57 16.42 129.17C11.82 126.27 5.51995 127.27 2.41995 131.77C-0.680045 136.27 0.519956 142.87 5.31996 145.97C20.82 155.77 37.32 163.57 54.52 169.17C56.52 169.87 57.82 171.87 57.42 173.97C56.62 178.77 56.52 183.67 57.12 188.57C57.32 190.17 56.02 191.67 54.32 191.57C46.62 190.97 38.92 189.87 31.32 188.17C26.92 187.17 22.42 190.17 21.82 194.87C21.32 198.87 24.12 202.67 28.12 203.57C39.02 205.97 50.12 207.37 61.22 207.57C62.62 207.57 63.92 208.37 64.72 209.57C77.42 229.17 102.52 237.77 125.12 228.87L160.92 214.77C162.12 214.37 163.42 215.07 163.52 216.27C163.72 217.47 163.82 218.77 164.02 219.97C164.22 221.97 163.02 223.87 161.02 224.47C149.62 227.77 127.82 234.27 118.72 238.17C102.62 245.07 82.62 253.67 82.72 276.87C82.72 302.07 98.5199 315.97 127.12 315.97H224.32C252.92 315.97 268.62 302.07 268.72 276.87C268.72 253.77 248.72 245.07 232.62 238.17C222.72 233.97 198.12 226.67 187.72 223.67C186.02 223.17 184.82 221.77 184.72 220.07C184.62 219.27 184.62 218.47 184.52 217.77C184.22 215.07 183.82 212.37 183.42 209.67C183.12 207.67 184.12 205.67 186.02 204.87L230.42 187.47C250.62 179.57 262.82 159.97 262.22 139.47C262.22 138.37 262.62 137.17 263.42 136.37C269.42 129.97 274.92 123.17 279.92 115.87ZM120.32 144.87C118.32 143.17 115.62 142.77 113.62 143.97C111.82 145.17 111.32 147.47 111.22 147.87L108.12 147.37C108.32 146.37 109.02 143.07 112.12 141.27C115.32 139.37 119.42 139.87 122.42 142.47L120.32 144.87ZM186.22 292.57H202.42V256.27C202.42 253.07 205.52 250.77 208.62 251.77C215.32 253.87 221.32 255.97 224.82 257.47C244.92 266.07 248.42 270.17 248.42 277.27C248.42 284.37 248.42 295.87 224.52 295.87H202.42V295.77H186.22V292.57ZM186.22 300.57H204.42V303.67H186.22V300.57ZM186.22 308.47H204.42V311.67H186.22V308.47ZM179.92 311.67H161.72V308.47H179.92V311.67ZM179.92 303.67H161.72V300.57H179.92V303.67ZM179.92 295.77H158.52C153.42 295.87 148.32 295.87 144.02 295.87C137.02 295.87 132.02 295.97 130.52 295.87H127.32C103.52 295.87 103.52 284.67 103.52 277.27C103.52 269.87 107.12 266.07 127.22 257.37C129.62 256.37 133.42 254.97 137.82 253.57C140.92 252.57 144.02 254.77 144.02 258.07V292.69C148.46 292.69 153.52 292.67 158.52 292.67H179.92V295.77ZM184.12 147.97C172.72 154.47 156.22 149.47 149.82 135.57C164.62 129.57 179.32 123.67 194.12 117.67C198.52 129.57 193.82 142.47 184.12 147.97ZM225.02 102.77C223.02 101.07 220.32 100.77 218.32 101.87C216.42 102.97 216.02 105.27 215.92 105.77L212.82 105.27C213.02 104.27 213.72 100.97 216.82 99.17C220.02 97.27 224.12 97.77 227.12 100.37L225.02 102.77Z" fill="white"/>
</svg>
