<svg width="137" height="91" viewBox="0 0 137 91" fill="none" xmlns="http://www.w3.org/2000/svg">
<path opacity="0.79" d="M56.2313 83.0311L80.5274 82.9505C80.6344 79.0547 80.7147 75.3202 80.7147 71.7468C80.7147 71.7468 80.7682 66.6151 68.3793 66.6151C55.9904 66.6151 56.0439 71.7468 56.0439 71.7468C56.0439 75.3202 56.0975 79.1353 56.2313 83.0311Z" fill="white"/>
<path d="M114.189 39.694C113.493 38.8342 112.236 38.7536 111.326 39.3715C108.088 41.5478 104.637 43.3211 100.971 44.6107C100.569 44.745 100.141 44.4764 100.088 44.0733C99.9005 42.515 99.4456 41.0642 98.8302 39.694C98.6964 39.3984 98.7766 39.0491 99.0442 38.8611C99.3921 38.6193 99.7399 38.3774 100.061 38.1088C105.225 34.2667 109.801 29.6455 113.627 24.4064C114.457 23.2779 114.376 21.6928 113.36 20.7524C112.156 19.624 110.283 19.8389 109.346 21.1286C105.814 25.9647 101.64 30.2366 96.8768 33.7562C96.5022 34.0249 96.1276 34.2936 95.753 34.5623C95.5122 34.7235 95.1643 34.7235 94.9503 34.5085C93.6927 33.4338 92.221 32.5741 90.6423 31.9561C90.3212 31.8487 90.1339 31.4994 90.2141 31.177C90.9366 28.2753 92.1942 25.4273 93.9602 21.3435C96.3684 15.8625 99.5794 10.7577 103.566 6.21713C104.53 5.11556 104.503 3.39605 103.433 2.40195C102.362 1.40786 100.569 1.43472 99.5794 2.59002C95.2179 7.5605 91.6858 13.1489 89.0368 19.1672C87.1102 23.6004 85.6653 26.8782 84.8626 30.4516C84.7823 30.7471 84.5415 30.962 84.2204 30.962H52.8067C52.5124 30.962 52.2448 30.7471 52.1645 30.4516C51.3618 26.8782 49.9169 23.6004 47.9903 19.1672C45.3681 13.1758 41.8628 7.6411 37.528 2.67062C36.6183 1.62279 35.0663 1.35412 33.9157 2.13328C32.5511 3.07364 32.337 4.95436 33.4073 6.16339C37.3942 10.7309 40.6319 15.8357 43.0669 21.3435C44.8329 25.4273 46.0905 28.2753 46.813 31.177C46.8933 31.4994 46.7059 31.8487 46.3849 31.9561C44.8061 32.5472 43.3612 33.4338 42.0768 34.5085C41.836 34.6966 41.5149 34.7235 41.2741 34.5623C40.8995 34.2936 40.5249 34.0249 40.1503 33.7562C35.3874 30.2097 31.1864 25.9647 27.6811 21.1286C26.7981 19.8927 25.0589 19.6508 23.8548 20.5912C22.6507 21.5316 22.5169 23.2242 23.3999 24.4332C27.2263 29.6724 31.7751 34.2667 36.9393 38.1088C37.2872 38.3506 37.6083 38.5924 37.9561 38.8611C38.2237 39.0491 38.304 39.3984 38.1702 39.694C37.528 41.0642 37.0999 42.515 36.9126 44.0733C36.8591 44.4764 36.4309 44.745 36.0296 44.6107C32.337 43.2942 28.8317 41.5209 25.594 39.3178C24.5772 38.6193 23.1858 38.9417 22.5704 40.0432C22.0352 41.0105 22.3831 42.2195 23.2929 42.8374C27.4671 45.6585 31.9892 47.8348 36.8056 49.2856C37.0196 49.3394 37.1802 49.5274 37.2604 49.7692C38.9194 56.2174 44.7526 60.9998 51.7097 60.9998H65.3561C65.6505 60.9998 65.8913 61.1879 65.9983 61.4566C66.0518 61.6715 66.1054 61.8596 66.1054 62.0208V63.9015C66.0786 64.2239 65.811 64.4926 65.4899 64.5195C50.5323 65.621 44.0302 72.2841 41.1938 77.9263C38.9729 82.3326 38.7856 86.6582 39.8827 88.1359C40.4446 88.8882 41.3009 89.3181 42.2642 89.3181H94.7897C95.753 89.3181 96.636 88.8882 97.1712 88.1359C98.2682 86.6582 98.0542 82.3057 95.86 77.9263C93.0237 72.2573 86.4413 65.5673 71.2964 64.4926C70.9753 64.4657 70.681 64.1971 70.681 63.8746V62.0477C70.681 61.8865 70.7077 61.6984 70.788 61.4834C70.8683 61.2148 71.1358 61.0267 71.4302 61.0267H85.3442C92.3013 61.0267 98.1345 56.2443 99.7934 49.7961C99.847 49.5812 100.008 49.3931 100.248 49.3125C105.065 47.8348 109.64 45.6585 113.815 42.8106C114.778 42.112 114.992 40.6612 114.189 39.694ZM51.4153 37.0341C50.6661 37.0341 50.0507 36.4161 50.0507 35.6638C50.0507 35.3414 50.1845 35.0459 50.3718 34.8041H52.4856C52.6729 35.0459 52.8067 35.3414 52.8067 35.6638C52.78 36.4161 52.1645 37.0341 51.4153 37.0341ZM62.4663 88.0285H56.0444V87.1687H62.4663V88.0285ZM62.4663 86.094H56.0444V85.2611H62.4663V86.094ZM62.9212 84.6432H62.0917V83.7834H59.6032V83.8103H45.6892C45.261 83.8103 44.9399 83.3804 45.047 82.9774C45.4751 81.3385 46.3849 79.2697 48.1241 77.2546C50.5858 74.4067 54.1981 72.3647 58.7737 71.1557C59.2018 71.0482 59.6032 71.3438 59.6032 71.8005V82.9505H62.9212V84.6432ZM80.6884 88.0285H74.2665V87.1687H80.6884V88.0285ZM80.6884 86.094H74.2665V85.2611H80.6884V86.094ZM73.8116 82.9505H77.0761V71.6931C77.0761 71.2632 77.4774 70.9408 77.9056 71.0482C82.6149 72.2573 86.3343 74.3529 88.8495 77.2546C90.5888 79.2697 91.4718 81.3385 91.9266 82.9505C92.0337 83.3804 91.7126 83.7834 91.2845 83.7834H74.6411V84.6432H73.8116V82.9505ZM76.0593 40.6343C75.6579 40.5 75.0157 40.1776 74.427 39.5865C73.1962 40.5806 71.1626 41.8433 68.353 42.0583H67.577C65.5167 42.0583 63.8577 41.4672 62.7606 40.9299L63.1352 40.1776C64.2591 40.7418 66.0518 41.3597 68.2727 41.1985C70.8415 41.0105 72.7413 39.8552 73.8651 38.9417C73.8651 38.9148 73.8384 38.9148 73.8384 38.8879C73.544 38.4312 73.3567 37.9207 73.2497 37.3834L74.0792 37.2221C74.1595 37.652 74.32 38.055 74.5608 38.4312C75.096 39.2909 75.9255 39.694 76.3536 39.8552L76.0593 40.6343ZM85.7991 37.0341C85.0499 37.0341 84.4345 36.4161 84.4345 35.6638C84.4345 35.3414 84.5683 35.0459 84.7556 34.8041H86.8694C87.0567 35.0459 87.1905 35.3414 87.1905 35.6638C87.1638 36.4161 86.5483 37.0341 85.7991 37.0341Z" fill="white"/>
<path d="M76.3537 39.8552C75.9256 39.6939 75.0961 39.2909 74.5609 38.4312C74.3201 38.055 74.1596 37.652 74.0793 37.2221L73.2498 37.3834C73.3568 37.9207 73.5441 38.4312 73.8385 38.8879C73.8385 38.9148 73.8652 38.9148 73.8652 38.9417C72.7414 39.8552 70.8416 41.0373 68.2728 41.1985C66.052 41.3597 64.2592 40.7418 63.1353 40.1776L62.7607 40.9299C63.8578 41.4672 65.5168 42.0583 67.5771 42.0583H68.3531C71.1627 41.8433 73.1963 40.5806 74.4271 39.5865C75.0158 40.1776 75.658 40.5 76.0594 40.6343L76.3537 39.8552Z" fill="#949597"/>
<path d="M84.7557 34.8041C84.5684 35.0459 84.4346 35.3414 84.4346 35.6638C84.4346 36.4161 85.05 37.0341 85.7992 37.0341C86.5484 37.0341 87.1639 36.4161 87.1639 35.6638C87.1639 35.3414 87.0301 35.0459 86.8428 34.8041H84.7557Z" fill="#949597"/>
<path d="M50.3719 34.8041C50.1846 35.0459 50.0508 35.3414 50.0508 35.6638C50.0508 36.4161 50.6662 37.0341 51.4154 37.0341C52.1646 37.0341 52.7801 36.4161 52.7801 35.6638C52.7801 35.3414 52.6463 35.0459 52.459 34.8041H50.3719Z" fill="#949597"/>
<path d="M62.4668 85.2611H56.0449V86.094H62.4668V85.2611Z" fill="#949597"/>
<path d="M62.4668 87.1687H56.0449V88.0285H62.4668V87.1687Z" fill="#949597"/>
<path d="M62.9209 84.6432V82.9505H56.2314C56.2314 83.2461 56.2582 83.5147 56.2582 83.8103L62.0914 83.7834V84.6432H62.9209Z" fill="#949597"/>
<path d="M80.6885 85.2611H74.2666V86.094H80.6885V85.2611Z" fill="#949597"/>
<path d="M80.6885 87.1687H74.2666V88.0285H80.6885V87.1687Z" fill="#949597"/>
<path d="M73.8115 84.6432H74.641V83.7834H80.501C80.501 83.5147 80.5277 83.2192 80.5277 82.9505H73.8115V84.6432Z" fill="#949597"/>
</svg>
