<?xml version="1.0" encoding="UTF-8"?>
<svg id="uuid-83e1727c-d43b-4ed6-82e0-4862c25e7550" data-name="2" xmlns="http://www.w3.org/2000/svg" viewBox="0 0 512 338.7">
  <defs>
    <style>
      .uuid-17fd51ee-8299-4e16-93a9-4fb53646abed {
        isolation: isolate;
        opacity: .79;
      }

      .uuid-17fd51ee-8299-4e16-93a9-4fb53646abed, .uuid-d3dbfa6b-278e-47e9-be10-2d8eae756f53, .uuid-098fe483-5648-47bf-a953-a8ca48e32c03 {
        stroke-width: 0px;
      }

      .uuid-17fd51ee-8299-4e16-93a9-4fb53646abed, .uuid-098fe483-5648-47bf-a953-a8ca48e32c03 {
        fill: #fff;
      }

      .uuid-d3dbfa6b-278e-47e9-be10-2d8eae756f53 {
        fill: #949597;
      }
    </style>
  </defs>
  <path class="uuid-17fd51ee-8299-4e16-93a9-4fb53646abed" d="M291.8,323.96c5.3,0,9.7-4.2,9.9-9.5.5-13.6.7-26.9.7-39.4,0,0,.2-17.8-46.1-17.8s-46.1,17.8-46.1,17.8c0,12.5.2,25.8.7,39.4.2,5.3,4.6,9.5,9.9,9.5h71Z"/>
  <path class="uuid-098fe483-5648-47bf-a953-a8ca48e32c03" d="M425.5,151.86h0c-1-.2-23.2-4.1-47.2,2.6-2.7.7-5.6-.7-6.6-3.3-.6-1.8-1.4-3.6-2.2-5.3-1-2.1-.6-4.6,1.1-6.2,5.2-5,10.1-9.5,13.9-12.3,21.3-15.8,42.1-23.9,42.3-24,5.2-2,7.8-7.8,5.8-13s-7.8-7.8-13-5.8c-.9.4-23.4,9.1-47.1,26.6-4.1,3-9.1,7.5-14.4,12.5-1.9,1.8-4.8,2-6.9.4-1-.7-2.1-1.4-3.2-2.1-2.2-1.3-3.2-4-2.3-6.4,3.7-10.2,11.2-28.1,22.8-45.7,18.3-27.7,35.1-36,35.2-36,5.1-2.3,7.3-8.3,5-13.3-2.3-5.1-8.3-7.3-13.3-5-.9.4-21.8,10.2-43.6,43.2-13.4,20.3-21.6,40.5-25.5,51.4-.8,2.2-3,3.6-5.3,3.5h-129.9c-2.4.1-4.5-1.3-5.3-3.5-3.9-10.9-12.1-31.1-25.5-51.4-21.8-33-42.7-42.8-43.6-43.2-5.1-2.3-11.1-.1-13.4,5-2.3,5.1-.1,11,4.9,13.3.2.1,16.9,8.3,35.3,36.1,11.6,17.6,19.1,35.5,22.8,45.7.9,2.4-.1,5.1-2.3,6.4-1.1.7-2.1,1.4-3.2,2.1-2.1,1.5-5,1.3-6.9-.4-5.3-5-10.3-9.5-14.4-12.5-23.6-17.5-46.1-26.2-47.1-26.6-5.2-2-11,.6-13,5.8s.6,11,5.8,13c.2.1,21,8.2,42.3,24,3.8,2.8,8.7,7.3,14,12.3,1.7,1.6,2.1,4.1,1.1,6.2-.8,1.7-1.5,3.5-2.2,5.3-.9,2.6-3.9,4-6.6,3.3-24-6.7-46.2-2.8-47.2-2.6-4.3.8-7.1,4.8-6.3,9.1s4.8,7.1,9.1,6.3c.2,0,22.7-3.9,44.6,3.7h0c1.9.7,3.3,2.4,3.5,4.4.8,7.8,3.2,15.2,6.9,21.7l-.5.9c-6.6,11.9-11.4,22.9-14.2,32.8l-.6,2.2h0v.2h0c-2.5,12.6-3.6,24.7-3.2,35.8.9,26.4,10.3,44.6,26.3,51.4,4.3,1.8,8.9,2.7,13.6,2.7,13,0,27.3-6.7,41.6-19.7,3.8-3.5,7.6-7.3,11.2-11.5,1.7-1.9,4.9-.8,4.9,1.8.2,10.1.4,20.2.6,30.3h64.8l-.3-29.6c0-2.6,3.2-3.9,4.9-1.9,3.5,4,7.1,7.6,10.7,10.9,14.3,13,28.7,19.7,41.6,19.7,4.7,0,9.3-.9,13.6-2.7,16-6.8,25.4-25,26.3-51.4.4-11.1-.7-23.3-3.3-35.9h-.1l-.7-2.3c-2.8-9.9-7.6-20.9-14.2-32.8l-.4-.7c3.7-6.5,6.1-13.9,6.9-21.7.2-2,1.6-3.8,3.5-4.4h0c21.9-7.6,44.3-3.7,44.6-3.7,4.3.8,8.3-2,9.1-6.3,1.5-4.5-1.3-8.6-5.6-9.4ZM318.4,127.76c1.5,2.7,4.3,4.5,7.6,4.6-.1,2.8-2.3,5-5.1,5s-5.1-2.3-5.1-5.1c0-2,1.1-3.6,2.6-4.5ZM194.3,127.46c1.9.7,3.3,2.6,3.3,4.8,0,2.8-2.3,5.1-5.1,5.1s-5.1-2.3-5.1-5.1c3-.3,5.6-2.2,6.9-4.8ZM193.1,151.36h0c8.6,7.4,10.1,16.8,6.7,20.6-2.8,3.3-9.8,3.3-12.7.3-3.4-3.6-2.2-12.8,6-20.9ZM137.9,231.56l-.4,1.4h-2.9l.2-.9c2.6-9.1,7-19.3,13-30.3.5.7,1,1.4,1.5,2-5.2,10.1-9,19.4-11.4,27.8ZM145.5,232.96h-2.9v-.1c2.2-7.6,5.6-16,10.2-25l1.8,1.8c-3.9,8-6.9,15.6-8.9,22.6l-.2.7ZM243.5,241.86c-9.5,0-18.2,5-23.1,13.2-8,13.2-17,24.6-26.4,33.1-12.9,11.7-25.4,16.7-33.5,13.3-8.1-3.4-13.2-15.8-13.8-33.2-.4-10.3.8-21.7,3.4-33.7l.2-.9c1.8-6.4,4.5-13.3,8-20.6,9.6,7.8,21.8,12.4,35.1,12.4h49c2.9,0,5.3,2.4,5.3,5.3v6.7c.1,2.5-1.8,4.4-4.2,4.4ZM240.6,143.16l-2.9-1.3c3.4-7.2,10.6-11.8,18.6-11.8s15.2,4.6,18.6,11.8l-2.9,1.3c-2.9-6.1-9-10-15.7-10s-12.9,3.9-15.7,10ZM365.8,268.26c-.6,17.4-5.8,29.9-13.8,33.2-8,3.4-20.6-1.6-33.5-13.3-9.4-8.5-18.4-19.9-26.4-33.1-4.9-8.1-13.6-13.2-23.1-13.2-2.4,0-4.3-1.9-4.4-4.3v-6.7c0-3,2.4-5.4,5.3-5.4h49.2c13.3,0,25.5-4.7,35.1-12.5,3.4,7.1,6.1,13.7,7.9,19.9h0c2.8,12.6,4.1,24.6,3.7,35.4ZM367.2,232.96v-.1c-2-7.2-5.1-14.9-9.2-23.2.6-.6,1.2-1.2,1.7-1.8,4.6,9,8.1,17.4,10.2,25.1h-2.7ZM377.6,231.96l.3,1h-2.8l-.3-1.2c-2.4-8.5-6.3-17.9-11.5-27.9.5-.7,1-1.3,1.5-2,5.9,10.9,10.3,21.1,12.8,30.1Z"/>
  <g>
    <path class="uuid-d3dbfa6b-278e-47e9-be10-2d8eae756f53" d="M318.4,127.76c-1.6.9-2.6,2.5-2.6,4.5,0,2.8,2.3,5.1,5.1,5.1s5.1-2.2,5.1-5c-3.2,0-6.1-1.9-7.6-4.6Z"/>
    <path class="uuid-d3dbfa6b-278e-47e9-be10-2d8eae756f53" d="M194.3,127.46c-1.3,2.6-3.9,4.5-7,4.8,0,2.8,2.3,5.1,5.1,5.1s5.1-2.3,5.1-5.1c.1-2.2-1.3-4.1-3.2-4.8Z"/>
    <path class="uuid-d3dbfa6b-278e-47e9-be10-2d8eae756f53" d="M193.1,151.36c-8.2,8.1-9.4,17.3-6,20.9,2.9,3.1,9.9,3,12.7-.3,3.4-3.8,1.9-13.2-6.7-20.6h0Z"/>
    <path class="uuid-d3dbfa6b-278e-47e9-be10-2d8eae756f53" d="M240.6,143.16l-2.9-1.3c3.4-7.2,10.6-11.8,18.6-11.8s15.2,4.6,18.6,11.8l-2.9,1.3c-2.9-6.1-9-10-15.7-10s-12.9,3.9-15.7,10Z"/>
    <path class="uuid-d3dbfa6b-278e-47e9-be10-2d8eae756f53" d="M157.5,203.06l-1.4,2.8,4.7,2.3-2.4,5c.8.7,1.7,1.3,2.6,2l4-8.4-7.5-3.7Z"/>
    <path class="uuid-d3dbfa6b-278e-47e9-be10-2d8eae756f53" d="M351.3,208.16l4.9-2.8-1.6-2.7-7.6,4.4,4.6,8c.9-.6,1.7-1.3,2.6-2l-2.9-4.9Z"/>
  </g>
</svg>