<svg width="105" height="70" viewBox="0 0 105 70" fill="none" xmlns="http://www.w3.org/2000/svg">
<path opacity="0.79" d="M59.9258 65C61.0458 65 61.9585 64.0876 61.9793 62.9677C62 61.9309 62 60.9355 62 59.9401C62 59.9401 62.0415 56 52.5 56C42.9585 56 43 59.9401 43 59.9401C43 60.9355 43 61.9516 43.0207 62.9677C43.0415 64.0876 43.9542 65 45.0742 65H59.9258Z" fill="white"/>
<path d="M95.833 49.2273L95.5049 49.62C94.582 50.7154 93.5977 51.7694 92.5518 52.7614L92.1826 52.3688C93.5977 51.1287 94.8692 49.7027 95.9356 48.1526L96.2227 47.7393L95.4024 47.1606L95.1152 47.574C94.0694 49.0827 92.8594 50.4467 91.4854 51.6454L91.1778 51.3354C92.6338 49.93 93.9258 48.38 95.0127 46.6646L95.2793 46.2513L94.4385 45.7139L94.1719 46.1273C93.126 47.76 91.875 49.248 90.501 50.5914L90.4395 50.5294C90.419 49.5994 90.1319 48.69 89.6192 47.946L89.3321 47.5326L88.5117 48.1113L88.7989 48.5247C89.3936 49.3927 89.5986 50.5294 89.3526 51.5627L88.9834 51.9141C85.3945 55.3655 77.8271 55.2208 71.5312 56.3989C69.3779 56.8122 67.4297 56.9776 65.666 56.9776C61.3594 56.9776 57.2988 55.7169 55.3096 55.0348C54.6533 54.8075 54.2227 54.1875 54.2227 53.5055V52.1001C54.2227 51.6454 54.5918 51.2941 55.0225 51.2941H65.2764C70.5264 51.2941 74.9561 47.7186 76.3096 42.8412C76.3916 42.5725 76.5967 42.3658 76.8428 42.2831C80.6367 41.1258 84.1436 39.4724 87.3428 37.3023C88.0605 36.827 88.3271 35.8556 87.8965 35.1116C87.4248 34.3056 86.3789 34.0576 85.6201 34.5743C83.1592 36.2483 80.4932 37.571 77.6426 38.6044C77.1709 38.7697 76.6582 38.4597 76.5762 37.9637C76.4326 37.0337 76.1865 36.145 75.8379 35.2976C75.6943 34.9463 75.7969 34.5536 76.084 34.3469C79.5498 31.7222 83.6309 28.0021 87.3838 23.0006C88.0605 22.0912 87.876 20.8099 86.9736 20.1278C86.0713 19.4665 84.8203 19.7145 84.1436 20.6032C80.7187 25.15 76.9453 28.5808 73.7461 31.0195C73.4385 31.2468 73.0283 31.2262 72.7207 30.9782C72.1465 30.4821 71.5107 30.0275 70.834 29.6554C70.4033 29.4074 70.2803 28.8288 70.5879 28.4361C72.6797 25.7493 74.5049 22.6079 76.002 19.1151C78.6064 12.9976 79.3037 7.91349 79.3447 7.68615C79.4883 6.57012 78.7295 5.55743 77.6221 5.41276C76.5146 5.26809 75.5098 6.03277 75.3662 7.14881C75.3662 7.19014 74.6895 12.0056 72.2695 17.6271C70.957 20.7065 68.9473 24.406 65.9736 27.6921C65.666 28.0227 65.2354 28.2294 64.7842 28.2294H40.1953C39.7441 28.2294 39.3135 28.0434 39.0059 27.6921C36.0527 24.4266 34.043 20.7065 32.71 17.6271C30.3105 12.0056 29.6338 7.21081 29.6133 7.16947C29.4697 6.05344 28.4443 5.28875 27.3574 5.43342C26.25 5.57809 25.4912 6.61146 25.6348 7.70682C25.6553 7.91349 26.373 13.0183 28.9775 19.1358C30.4746 22.6492 32.2793 25.77 34.3916 28.4567C34.6992 28.8494 34.5762 29.4281 34.1455 29.6761C33.4688 30.0481 32.833 30.5028 32.2588 30.9988C31.9717 31.2468 31.541 31.2675 31.2334 31.0402C28.0342 28.6014 24.2402 25.15 20.7949 20.5619C20.1182 19.6732 18.8672 19.4872 17.9854 20.1692C17.1035 20.8512 16.9189 22.1119 17.5957 23.0006C21.3486 27.9814 25.4297 31.7015 28.8955 34.3469C29.1826 34.5743 29.2852 34.9669 29.1416 35.2976C28.793 36.145 28.5469 37.0337 28.4033 37.9637C28.3213 38.4597 27.8086 38.7904 27.3369 38.6044C24.5068 37.5917 21.8613 36.2483 19.4004 34.6156C18.6826 34.1402 17.7188 34.2642 17.2061 34.9463C16.6318 35.6903 16.8164 36.765 17.5752 37.2817C20.7949 39.4517 24.3223 41.1258 28.1367 42.3038C28.4033 42.3865 28.6084 42.5931 28.6699 42.8618C30.0234 47.7393 34.4326 51.3147 39.7031 51.3147H49.957C50.4082 51.3147 50.7568 51.6867 50.7568 52.1208V53.4435C50.7568 54.1255 50.3262 54.7455 49.6904 54.9728C46.4092 56.1509 39.5801 57.5769 33.4688 56.4195C27.3984 55.2828 21.2461 52.4514 17.6162 49.1447C17.6025 49.1309 17.5889 49.124 17.5752 49.124C17.4521 49.0207 17.3496 48.9173 17.2266 48.7933L16.8779 48.442C16.6523 47.4086 16.8369 46.2719 17.4316 45.3832L17.7188 44.9699L16.8984 44.3912L16.6113 44.8045C16.0986 45.5486 15.8115 46.4786 15.791 47.388L15.7705 47.3673L15.6885 47.45C14.2939 46.1066 13.0635 44.6185 12.0176 42.9858L11.751 42.5725L10.9102 43.1098L11.1768 43.5232C12.2637 45.2179 13.5557 46.7679 15.0117 48.1733L14.7041 48.4833C13.3301 47.2846 12.1201 45.9206 11.0947 44.4325L10.8076 44.0192L9.9873 44.5979L10.2744 45.0112C11.3408 46.5613 12.6123 47.9873 14.0068 49.2273L13.6377 49.62C12.6123 48.628 11.6279 47.5946 10.7051 46.4993L10.377 46.1066L9.61816 46.7679L9.94629 47.1606C11.2793 48.7313 12.7148 50.2194 14.2529 51.5627L14.4375 51.7281C18.6006 55.7375 25.6143 59.065 32.71 60.4083C34.9863 60.8423 37.2012 61.049 39.293 61.049C41.2412 61.049 43.0869 60.863 44.8506 60.5117C45.3428 60.4083 45.8145 60.7803 45.8145 61.297V65H52.5H59.1445V61.2763C59.1445 60.7597 59.6162 60.3877 60.1084 60.491C61.8721 60.8423 63.7178 61.0283 65.666 61.0283C67.7783 61.0283 69.9727 60.8217 72.249 60.3877C79.2422 59.065 87.3428 58.9616 91.5469 55.0348L91.6905 54.9108C93.3311 53.5055 94.8692 51.9348 96.2637 50.2814L96.5918 49.8887L95.833 49.2273ZM65.6045 30.8748C66.1787 30.8748 66.6504 31.3502 66.6504 31.9288C66.6504 32.0115 66.6504 32.0735 66.6299 32.1562C66.3223 32.0322 65.9736 31.9495 65.6045 31.9495C65.2354 31.9495 64.9072 32.0115 64.5791 32.1562C64.5586 32.0735 64.5586 32.0115 64.5586 31.9288C64.5586 31.3502 65.0303 30.8748 65.6045 30.8748ZM40.4209 32.1562C40.1133 32.0322 39.7647 31.9495 39.3955 31.9495C39.0264 31.9495 38.6982 32.0115 38.3701 32.1562C38.3496 32.0735 38.3496 32.0115 38.3496 31.9288C38.3496 31.3502 38.8213 30.8748 39.3955 30.8748C39.9697 30.8748 40.4414 31.3502 40.4414 31.9288C40.4619 32.0115 40.4414 32.0735 40.4209 32.1562ZM52.5 34.5536C52.1514 34.2642 51.7002 34.0989 51.2285 34.0989C50.3877 34.0989 49.6494 34.6156 49.3418 35.3596C46.5732 34.9463 44.2969 33.9956 42.2256 32.9209C41.7744 32.6935 41.9385 32.0115 42.4512 32.0115H62.5488C63.0615 32.0115 63.2256 32.6935 62.7744 32.9209C60.7031 33.9956 58.4268 34.9463 55.6582 35.3596C55.3506 34.6156 54.6123 34.0989 53.7715 34.0989C53.2998 34.0989 52.8486 34.2642 52.5 34.5536Z" fill="white"/>
<path d="M62.5488 31.9908H42.4511C41.9385 31.9908 41.7744 32.6729 42.2256 32.9002C44.2969 33.9749 46.5732 34.9256 49.3418 35.3389C49.6494 34.5949 50.3877 34.0782 51.2285 34.0782C51.7002 34.0782 52.1513 34.2436 52.5 34.5329C52.8486 34.2436 53.2998 34.0782 53.7715 34.0782C54.6123 34.0782 55.3506 34.5949 55.6582 35.3389C58.4267 34.9256 60.7031 33.9749 62.7744 32.9002C63.2256 32.6729 63.0615 31.9908 62.5488 31.9908Z" fill="#949597"/>
<path d="M65.6045 31.9495C65.9736 31.9495 66.3018 32.0115 66.6299 32.1562C66.6504 32.0735 66.6504 32.0115 66.6504 31.9288C66.6504 31.3502 66.1787 30.8748 65.6045 30.8748C65.0303 30.8748 64.5586 31.3502 64.5586 31.9288C64.5586 32.0115 64.5586 32.0735 64.5791 32.1562C64.9072 32.0322 65.2559 31.9495 65.6045 31.9495Z" fill="#949597"/>
<path d="M39.416 31.9495C39.7852 31.9495 40.1133 32.0115 40.4414 32.1562C40.4619 32.0735 40.4619 32.0115 40.4619 31.9288C40.4619 31.3502 39.9902 30.8748 39.416 30.8748C38.8418 30.8748 38.3701 31.3502 38.3701 31.9288C38.3701 32.0115 38.3701 32.0735 38.3906 32.1562C38.6982 32.0322 39.0469 31.9495 39.416 31.9495Z" fill="#949597"/>
</svg>
