<svg width="62" height="62" viewBox="0 0 62 62" fill="none" xmlns="http://www.w3.org/2000/svg">
<mask id="mask0_457_4201" style="mask-type:alpha" maskUnits="userSpaceOnUse" x="0" y="0" width="62" height="62">
<circle cx="31" cy="31" r="31" fill="url(#paint0_linear_457_4201)"/>
</mask>
<g mask="url(#mask0_457_4201)">
<g clip-path="url(#clip0_457_4201)">
<circle cx="31" cy="31" r="31" fill="url(#paint1_linear_457_4201)"/>
<mask id="mask1_457_4201" style="mask-type:alpha" maskUnits="userSpaceOnUse" x="-139" y="-62" width="201" height="169">
<ellipse cx="-38.5" cy="22.5" rx="100.5" ry="84.5" fill="url(#paint2_linear_457_4201)"/>
</mask>
<g mask="url(#mask1_457_4201)">
<path opacity="0.79" d="M-3.8593 47.7129C-3.8593 47.7129 -6.02734 39.6562 -29.1983 44.3417C-52.3015 49.0843 -49.9302 57.0839 -49.9302 57.0839C-48.0942 63.3921 -46.0007 70.0603 -43.7242 76.8828C-43.7378 76.8428 -43.7513 76.7971 -43.7649 76.7571C-39.2526 76.0714 -34.7133 75.4543 -30.2146 74.9172C-27.369 74.5743 -21.8134 73.8315 -21.7457 73.7744L-21.3392 75.66C-21.4069 75.66 -26.9625 76.4599 -29.8758 76.8028C-33.9883 77.2999 -39.0019 78.0484 -42.9586 78.6313C-43.0264 78.6427 -43.128 78.6598 -43.128 78.6598C-42.1659 81.5111 -41.17 84.3909 -40.1469 87.2765C-33.3176 86.3394 -26.4883 85.4252 -19.7131 84.5738L-19.3744 86.4594L-39.4762 89.145C-36.5697 97.2645 -33.4531 105.424 -30.2146 113.315H10.4362C7.18418 91.5448 1.83181 67.5461 -3.8593 47.7187V47.7129ZM-36.9897 79.654L-21.1359 77.4827L-20.7971 79.3683L-36.651 81.5397L-36.9897 79.654ZM-36.0412 85.1395L-36.38 83.2539L-20.5261 81.0825L-20.1874 82.9682L-36.0412 85.1395Z" fill="white"/>
<path d="M38.0246 23.383C37.7265 22.1145 37.5368 20.8288 37.4961 19.5432C37.4961 17.429 37.7671 15.372 38.3769 13.3721L38.7834 12.0007L35.5991 11.3151L35.1926 12.6864C34.5151 14.972 34.1763 17.2576 34.2441 19.6003C34.2712 20.5317 34.3592 21.4631 34.5151 22.3945L24.8266 21.5431C23.4039 21.2002 21.8455 21.6002 20.8293 22.5716C19.8807 23.543 19.6098 24.8572 20.2195 26.0571C19.9485 26.2857 19.0678 27.1428 19 28.5141C18.9322 29.8283 19.6775 30.7997 19.8808 31.0283C19.0677 31.8854 18.8645 33.0853 19.4065 34.0567C20.0163 35.1995 21.5068 35.8852 23.0651 35.7137L28 36.0566C30.5 48 31.5 56.5 33 63.5C30.6287 64.3 16.3266 63.9999 10.5 62C4.74113 60.0001 4.40636 42.9705 -6.50162 41.542C-12.125 40.7992 -17.8838 40.5135 -23.6427 40.6277C-24.388 40.6277 -24.9977 40.2278 -25.201 39.6564L-26.3528 36.0566C-26.556 35.3138 -26.0818 34.5709 -25.201 34.3995L-4.26581 30.114C6.70992 27.8856 -22.5587 3.14409 -1.6235 5.3154C-1.6235 4.91542 -21.0682 -1.82705 -6.50162 3.37265C-23.6427 -4.39834 5.21938 -2.22705 6.37115 -3.14128C13.8238 -9.02667 32.3199 -7.54104 37.2658 -15.0835C38.2143 -16.512 37.8756 -18.3405 36.385 -19.369C34.3525 -20.7975 31.4392 -20.2832 30.2197 -18.4547C26.2901 -12.4551 21.4797 -7.02678 15.7886 -2.16991C15.5176 -1.94135 15.2466 -1.7128 14.9756 -1.48424C14.8401 -1.36996 14.4336 -1.02712 14.0271 -0.68428C13.5528 -0.284302 12.7398 -0.455721 12.4688 -0.969978C12.1978 -1.59852 11.9268 -2.28419 11.7913 -2.56989C10.8427 -4.4555 9.69098 -6.22683 8.2682 -7.82674C7.92945 -8.22672 7.86168 -8.79812 8.13269 -9.25523C8.6747 -10.1123 9.2167 -10.9694 9.69096 -11.8265C15.1788 -21.1403 19.0407 -31.1397 21.0054 -41.482C21.412 -43.7105 19.8537 -45.9389 17.2114 -46.5103C14.2303 -47.1389 11.2493 -45.4818 10.775 -42.9677C8.94571 -33.4253 5.49038 -24.2258 0.409027 -15.6549C0.00251871 -14.9692 -0.878239 -14.7406 -1.6235 -15.0835C-3.5883 -15.9406 -5.6886 -16.5691 -7.85664 -16.9691C-8.60191 -17.0834 -9.14392 -17.7119 -9.07616 -18.3976C-8.73741 -22.226 -8.66965 -26.2829 -8.66965 -31.1969C-8.6019 -41.7677 -10.4312 -52.3386 -14.1575 -62.5666C-15.106 -65.195 -18.6969 -66.5092 -21.7457 -65.0236C-23.846 -63.9951 -24.7267 -61.8238 -23.9815 -59.881C-20.5939 -50.5673 -18.9001 -40.9106 -18.9679 -31.254C-19.0356 -25.6543 -19.0356 -21.3689 -19.5776 -17.4834C-19.6454 -16.912 -20.1197 -16.4548 -20.7972 -16.3406L-73.2367 -5.59829C-74.6595 -5.31259 -76.0823 -4.91261 -77.3696 -4.39836C-77.9793 -4.1698 -78.6569 -4.22694 -79.1311 -4.62692C-82.4509 -7.19821 -85.703 -10.2266 -89.5648 -13.9978C-97.153 -21.3117 -103.318 -29.597 -107.925 -38.5679C-109.145 -40.9106 -112.465 -41.882 -115.175 -40.6821C-117.546 -39.5964 -118.427 -37.0823 -117.343 -34.9681C-112.329 -25.1972 -105.622 -16.2263 -97.424 -8.28386C-93.6977 -4.68406 -90.5133 -1.71279 -87.329 0.915634C-86.787 1.37275 -86.7193 2.11557 -87.1258 2.62983C-88.4131 4.1726 -89.4293 5.88679 -90.1746 7.71526C-90.4456 8.40094 -91.3941 8.74378 -92.2071 8.45808L-92.2749 8.40093C-102.709 4.68685 -112.397 -0.341437 -121.137 -6.51253C-123.17 -7.94102 -126.286 -7.99816 -128.251 -6.39825C-130.487 -4.56978 -130.283 -1.59851 -127.98 0.0585403C-118.427 6.85817 -107.79 12.4007 -96.34 16.4576C-95.1882 16.8576 -93.9687 17.2576 -92.8169 17.6576C-92.2749 17.829 -91.8684 18.2861 -91.8006 18.8004C-91.6651 20.1717 -91.3941 21.4859 -90.9876 22.8573C-90.9199 23.2001 -90.7844 23.543 -90.6488 23.8287C-90.3778 24.5715 -90.1068 25.2572 -89.8358 25.9428C-89.5648 26.5714 -90.1746 27.3142 -90.9876 27.257C-92.7491 27.1428 -94.5784 27.0285 -96.34 26.8571C-103.386 26.1714 -110.229 24.7429 -116.936 22.6287C-119.104 21.9431 -121.476 22.9144 -122.153 24.8C-122.831 26.5142 -121.543 28.3998 -119.579 29.0855C-110.026 32.0568 -100.066 33.771 -89.8358 34.1138C-88.4808 34.171 -87.1935 34.171 -85.8385 34.171H-84.8222C-84.348 34.171 -83.9415 34.3424 -83.6705 34.6281C-77.4373 40.342 -68.4941 43.1419 -59.7542 41.3134L-38.7513 37.0279C-37.9383 36.8565 -37.0575 37.2565 -36.8542 37.9422L-35.7025 41.5991C-35.4992 42.2848 -35.9735 42.9705 -36.7187 43.199C-59.1445 49.2558 -76.9631 58.7982 -88.2776 71.0261C-92.1394 75.1401 -95.3914 79.597 -93.2234 83.9968C-91.5296 87.5394 -87.4645 90.5107 -73.7788 90.5107C-66.8681 90.5107 -57.4507 89.7679 -44.6457 87.8823C-44.6457 87.8823 -44.5508 87.8651 -44.4356 87.8537C-36.17 86.7109 -27.9111 85.5967 -19.7131 84.5682L-19.3744 86.4538L-46.563 90.0879C-47.017 90.6593 -47.4641 91.2535 -47.8977 91.8821C-50.54 95.5962 -51.9628 98.6246 -52.5048 100.91C-53.5211 105.081 -54.2664 109.253 -54.7406 113.367H-43.2229C-42.2744 107.081 -40.4451 101.482 -37.3963 97.0818C-36.5155 95.8247 -35.567 94.7391 -34.5507 93.7677C-33.4667 92.9677 -31.7051 93.3677 -31.2986 94.5676C-28.9951 100.91 -26.4883 107.196 -23.9815 113.367H3.45784C2.10281 104.796 0.612283 96.2247 -0.945999 88.0537C-1.217 86.7966 0.273538 85.711 1.76407 86.1681C3.32235 86.6824 4.88062 87.3109 6.37115 88.1109C15.3143 92.8535 23.038 102.396 29.0001 113.309H42.6181C36.7238 100.796 27.2386 87.0252 12.8753 79.4256C7.99719 76.8543 2.98357 75.3116 -2.16553 74.9116C-3.0463 74.8544 -3.72379 74.3402 -3.92705 73.5974C-5.28208 69.0262 -6.63712 64.5122 -7.9244 59.941C-8.73742 57.1983 -9.55043 54.5127 -10.2957 51.77C-10.5667 50.8558 -9.61818 49.9987 -8.53416 50.1129C-8.39865 50.1129 -8.26315 50.1701 -8.12765 50.1701C1.5608 51.4272 4.94439 62.5573 10.5 64.5C15.3103 66.1571 25.3415 66.5 29.7454 66.5C31.5747 66.5 40.603 65.1286 42.5 64.5C41 60.5 35 44.5 37.3606 35.5994C38.4446 34.8566 39.2577 33.771 39.3932 32.4568L40.0029 27.4285C40.2672 25.8343 39.4406 24.3201 38.0246 23.383ZM-24.0492 -7.4839C-22.6264 -7.7696 -21.2037 -7.02679 -20.8649 -5.82685C-20.5261 -4.62692 -21.4069 -3.42698 -22.8297 -3.14128C-24.2525 -2.85559 -25.6753 -3.5984 -26.014 -4.79833C-26.3528 -5.99827 -25.472 -7.1982 -24.0492 -7.4839ZM-75.7435 8.00096C-77.1663 8.28666 -78.5891 7.54384 -78.9279 6.34391C-79.2666 5.14398 -78.3859 3.94405 -76.9631 3.65835C-75.5403 3.37265 -74.1175 4.11546 -73.7788 5.31539C-73.44 6.51533 -74.3208 7.71526 -75.7435 8.00096ZM-48.7107 6.05821C-49.5915 6.45819 -50.6078 6.62961 -51.624 6.62961C-53.5888 6.62961 -55.5536 6.00107 -57.1119 4.80114L-55.6214 3.37264C-53.9276 4.68686 -51.5563 5.08683 -49.6593 4.34402C-47.7622 3.6012 -47.017 2.05843 -46.8137 1.60131L-44.6457 2.17271C-44.9167 2.80124 -45.9329 5.0297 -48.7107 6.05821ZM-43.1212 78.6542C-73.2232 83.1854 -81.0756 81.3741 -82.9184 80.5741C-82.6474 79.9456 -81.8344 78.6885 -79.6663 76.4601C-70.5673 66.6892 -57.9317 60.0953 -45.9329 55.6898C-44.727 55.2441 -43.338 55.8155 -43.0128 56.8954L-37.3285 75.8372C-34.9504 75.5115 -32.5723 75.203 -30.2078 74.9173C-27.3623 74.5745 -21.8067 73.8316 -21.7389 73.7745L-21.3324 75.6601C-21.4001 75.6601 -26.9558 76.4601 -29.8691 76.8029C-33.9138 77.2886 -38.8258 78.0257 -42.7486 78.5971C-42.8706 78.6142 -42.9993 78.6371 -43.1145 78.6542H-43.1212ZM-36.9897 79.6542L-21.1359 77.4829L-20.7972 79.3685L-36.651 81.5398L-36.9897 79.6542ZM-36.0412 85.1396L-36.38 83.254L-20.5261 81.0827L-20.1874 82.9683L-36.0412 85.1396Z" fill="white"/>
</g>
</g>
</g>
<defs>
<linearGradient id="paint0_linear_457_4201" x1="31" y1="0" x2="31" y2="62" gradientUnits="userSpaceOnUse">
<stop stop-color="#8D4AF8"/>
<stop offset="1" stop-color="#532C92"/>
</linearGradient>
<linearGradient id="paint1_linear_457_4201" x1="31" y1="0" x2="31" y2="62" gradientUnits="userSpaceOnUse">
<stop stop-color="#8D4AF8"/>
<stop offset="1" stop-color="#532C92"/>
</linearGradient>
<linearGradient id="paint2_linear_457_4201" x1="-38.5" y1="-62" x2="-38.5" y2="107" gradientUnits="userSpaceOnUse">
<stop stop-color="#8D4AF8"/>
<stop offset="1" stop-color="#532C92"/>
</linearGradient>
<clipPath id="clip0_457_4201">
<rect width="201" height="169" fill="white" transform="translate(-139 -62)"/>
</clipPath>
</defs>
</svg>
