<svg width="62" height="62" viewBox="0 0 62 62" fill="none" xmlns="http://www.w3.org/2000/svg">
<path d="M62 31C62 48.1208 48.1208 62 31 62C13.8792 62 0 48.1208 0 31C0 13.8792 13.8792 0 31 0C48.1208 0 62 13.8792 62 31Z" fill="url(#paint0_linear_452_4345)"/>
<g clip-path="url(#clip0_452_4345)">
<mask id="mask0_452_4345" style="mask-type:alpha" maskUnits="userSpaceOnUse" x="0" y="0" width="62" height="62">
<circle cx="31" cy="31" r="31" fill="url(#paint1_linear_452_4345)"/>
</mask>
<g mask="url(#mask0_452_4345)">
<path opacity="0.79" d="M37.3374 53.9926C38.0887 53.9926 38.7257 53.408 38.7747 52.661C38.8727 51.232 38.9218 49.8518 38.9218 48.5364C38.9218 48.5364 38.8564 47.1724 30.6078 47.2211C23.8783 47.2698 22.2939 48.5364 22.2939 48.5364C22.2939 49.8518 22.3429 51.232 22.441 52.661C22.49 53.408 23.127 53.9926 23.8783 53.9926H37.3374Z" fill="white"/>
<path d="M24.8532 43.194C24.5167 43.1615 24.1835 42.7458 23.9271 42.5607C23.1708 42.0086 22.1875 41.9728 21.281 42.1222C20.4202 42.4438 19.579 42.7864 18.7754 43.1404C19.1053 43.1745 19.4402 43.194 19.7783 43.194H24.8532Z" fill="white"/>
<path d="M43.9773 43.0819C43.8384 43.1014 43.6996 43.1193 43.5607 43.1339C43.0479 42.9 42.5464 42.6857 42.0744 42.4957C40.5602 41.9208 38.7717 41.8104 37.6316 43.1128C37.594 43.1469 37.5581 43.1728 37.5205 43.194H42.4827C42.9907 43.194 43.4889 43.1534 43.9789 43.0819H43.9773Z" fill="white"/>
<path d="M48.984 40.7744C47.4894 39.943 45.8463 39.1327 44.1018 38.3679C43.9515 38.2818 43.7947 38.199 43.6347 38.1194C43.6347 38.1194 43.633 38.1194 43.6314 38.1194C43.1479 37.8823 42.6252 37.6777 42.0813 37.5218C42.0732 37.5186 42.0666 37.5153 42.0585 37.5121C42.0585 37.5121 42.0585 37.5137 42.0585 37.5153C41.838 37.452 41.6158 37.3968 41.3904 37.3513C41.3871 37.3513 41.3839 37.3513 41.3806 37.3497C41.049 37.2815 40.7126 37.2312 40.3744 37.2019C40.363 37.2019 40.3532 37.2003 40.3418 37.1987C40.1229 37.1808 39.9057 37.1727 39.6884 37.1727C39.6721 37.1727 39.6558 37.1727 39.6394 37.1727C39.5431 37.1727 39.4451 37.1759 39.3487 37.1808C39.3373 37.1808 39.3258 37.1808 39.316 37.1808C39.2098 37.1873 39.1037 37.1954 38.9975 37.2068C38.9828 37.2068 38.9697 37.21 38.955 37.2117C38.8652 37.2214 38.777 37.2328 38.6888 37.2474C38.6659 37.2506 38.6431 37.2539 38.6202 37.2588C38.4193 37.2912 38.22 37.3351 38.0256 37.3887C38.0011 37.3952 37.9766 37.4033 37.9521 37.4098C37.8737 37.4325 37.7953 37.4569 37.7186 37.4828C37.699 37.4893 37.6794 37.4958 37.6598 37.5023C37.5667 37.5348 37.4736 37.5705 37.3821 37.6095C37.3625 37.6176 37.3429 37.6274 37.3233 37.6355C37.2498 37.668 37.1779 37.7004 37.1061 37.7362C37.0816 37.7492 37.0571 37.7605 37.0309 37.7735C36.9427 37.819 36.8545 37.8661 36.7696 37.918L36.3286 38.1941L36.8676 39.0872L37.3086 38.8112C37.3805 38.7673 37.4523 38.7267 37.5275 38.6877C37.5536 38.6748 37.5814 38.6634 37.6075 38.6504C37.6565 38.626 37.7071 38.6017 37.7578 38.579C37.797 38.5627 37.8378 38.5481 37.877 38.5319C37.9178 38.5156 37.957 38.4994 37.9979 38.4848C38.0485 38.4669 38.1008 38.4523 38.153 38.4361C38.1841 38.4263 38.2151 38.4149 38.2478 38.4052C38.3082 38.3873 38.3719 38.3727 38.434 38.3581C38.4585 38.3516 38.4814 38.3451 38.5059 38.3402C38.5745 38.3256 38.6447 38.3126 38.7149 38.2996C38.7345 38.2964 38.7525 38.2915 38.7721 38.2883C38.8521 38.2753 38.9322 38.2655 39.0138 38.2558C39.0253 38.2558 39.0351 38.2526 39.0449 38.2509C39.1314 38.2412 39.2196 38.2347 39.3078 38.2298C39.3144 38.2298 39.3193 38.2298 39.3258 38.2298C39.4206 38.225 39.5153 38.2217 39.6117 38.2217C40.2846 38.2168 41 38.3256 41.7187 38.54C41.7204 38.54 41.722 38.54 41.7236 38.54C41.6665 38.7137 41.6093 38.8891 41.5521 39.0629C41.5505 39.0629 41.5472 39.0629 41.5456 39.0629C40.7518 38.8696 39.9857 38.8047 39.2752 38.8664C39.2752 38.8664 39.2735 38.8664 39.2719 38.8664C39.1706 38.8745 39.071 38.8875 38.973 38.9005C38.973 38.9005 38.9697 38.9005 38.9681 38.9005C38.8701 38.9151 38.7737 38.9313 38.6774 38.9508C38.6725 38.9508 38.6692 38.9524 38.6643 38.9541C38.5712 38.9735 38.4797 38.9947 38.3899 39.0174C38.3785 39.0206 38.367 39.0239 38.3556 39.0271C38.2723 39.0499 38.1906 39.0726 38.1106 39.0986C38.091 39.1051 38.0714 39.1132 38.0518 39.1197C37.9799 39.1441 37.9097 39.1684 37.8411 39.196C37.8182 39.2058 37.7953 39.2155 37.7725 39.2252C37.7071 39.2529 37.6434 39.2788 37.5797 39.3097C37.5389 39.3292 37.4997 39.3519 37.4589 39.3714C37.4148 39.3941 37.3707 39.4152 37.3266 39.4396C37.2792 39.4656 37.2335 39.4948 37.1861 39.524C37.1518 39.5451 37.1175 39.5646 37.0832 39.5857C37.0048 39.6377 36.9264 39.6913 36.8512 39.7481L36.4266 40.0567L37.0636 40.8848L37.4883 40.5763C38.6137 39.74 40.0216 39.7725 41.2156 40.0534C41.1519 40.2369 41.0882 40.4204 41.0262 40.6055C39.3944 40.3262 38.0371 40.6575 36.9819 41.6009L36.5899 41.942L37.2923 42.7214L37.6843 42.3804C37.7561 42.3154 37.8296 42.257 37.9064 42.2001C37.9227 42.1888 37.9374 42.1758 37.9538 42.1644C38.0256 42.1125 38.1008 42.0621 38.1759 42.0167C38.1955 42.0053 38.2135 41.9939 38.2331 41.9826C38.2984 41.9436 38.3654 41.9079 38.434 41.8754C38.452 41.8673 38.4699 41.8575 38.4879 41.8494C38.5614 41.8153 38.6382 41.7844 38.7133 41.7552C38.746 41.7438 38.777 41.7309 38.8097 41.7195C38.8832 41.6951 38.9567 41.6724 39.0334 41.6513C39.0726 41.6415 39.1135 41.6318 39.1527 41.6237C39.2 41.6123 39.2474 41.6042 39.2948 41.5945C39.365 41.5815 39.4369 41.5701 39.5088 41.562C39.5529 41.5571 39.5986 41.5506 39.6443 41.5474C39.6999 41.5425 39.757 41.5392 39.8142 41.536C39.8452 41.536 39.8763 41.5344 39.9073 41.5327C40.0102 41.5295 40.1147 41.5311 40.2209 41.536C40.2487 41.536 40.2764 41.5392 40.3026 41.5409C40.4381 41.549 40.577 41.562 40.7175 41.5815C40.7175 41.5815 40.7191 41.5815 40.7207 41.5815C40.7207 41.5815 40.7207 41.5847 40.7207 41.5863H40.7371C41.7563 41.7926 44.471 43.0527 44.3958 43.0153C48.3159 44.9152 50.5373 46.5553 50.9947 47.8707C51.0927 48.1467 51.1417 48.4552 50.8803 48.9911C50.031 50.6962 45.1962 50.6474 37.6173 47.2536C37.3723 47.1383 36.2044 46.5423 35.2162 46.0454C34.0026 47.0912 32.7841 48.1337 31.5738 49.186C31.2471 49.4783 31.0348 49.4945 30.6918 49.186C29.4961 48.1305 28.2842 47.0896 27.0771 46.0454C26.0905 46.5505 24.9063 47.1529 24.6483 47.2698C17.0694 50.6474 12.2509 50.6962 11.3852 49.0074C11.1239 48.4877 11.1729 48.1629 11.2709 47.8869C11.7446 46.5716 13.966 44.9315 17.8697 43.0153C17.8697 43.0153 18.8383 42.2472 21.5383 41.5977C22.7323 41.4402 23.7042 41.6984 24.4686 42.382L24.8606 42.723L25.563 41.9436L25.1709 41.6026C24.1713 40.7095 22.9038 40.3636 21.3897 40.5649C21.3227 40.3668 21.2557 40.1703 21.1888 39.9722C22.3174 39.7514 23.5964 39.7839 24.6336 40.5633L25.0582 40.8718L25.6953 40.0437L25.2706 39.7351C24.124 38.8745 22.5673 38.6309 20.8539 38.9865C20.7951 38.8144 20.7363 38.6407 20.6775 38.4685C22.239 38.0528 23.7662 38.1503 24.8459 38.8095L25.2869 39.0856L25.8259 38.1925L25.3849 37.9164C23.9051 37.0265 22.0398 37.0071 20.328 37.4796L20.3214 37.4617C20.2757 37.4812 20.23 37.5007 20.1826 37.5202C19.4656 37.7297 18.7795 38.0252 18.1638 38.3776C16.3948 39.1441 14.7108 39.9284 13.2162 40.7647C9.86782 42.697 8.0711 44.493 7.36874 46.4741C6.8624 47.8869 6.9604 49.3971 7.67909 50.8098C8.80612 53.0508 11.1092 54.1712 14.3596 54.1712C16.8913 54.1712 20.0274 53.4892 23.6045 52.1089C24.1926 51.8816 24.8132 52.3038 24.8132 52.9208V53.9601H36.4266L36.4592 52.5474C36.4756 51.9303 37.1126 51.5081 37.6843 51.7517C41.6534 53.3593 45.0998 54.1712 47.8439 54.1712C51.0943 54.1712 53.3974 53.0508 54.5244 50.8098C55.2431 49.3971 55.3411 47.9031 54.8348 46.4741C54.1324 44.493 52.3357 42.723 48.9873 40.7744H48.984Z" fill="white"/>
<path d="M62.2465 28.8878L62.3118 28.9365C61.8055 28.2383 60.8091 28.1084 60.0904 28.5793C58.0487 29.9433 55.86 31.0638 53.5733 31.9082C53.0506 32.103 52.4952 31.7783 52.3972 31.2424C52.2829 30.6416 52.1032 30.0407 51.8909 29.4886C51.7439 29.1152 51.8582 28.6767 52.1849 28.4494C52.3646 28.3195 52.5442 28.1896 52.7076 28.0759C56.2193 25.494 59.3064 22.3924 61.9035 18.8686C62.4752 18.0892 62.4915 16.9849 61.8382 16.2704C60.9398 15.2799 59.4208 15.4098 58.6694 16.4166C56.301 19.6318 53.4916 22.4573 50.2902 24.8119C49.9962 25.023 49.7021 25.2341 49.3918 25.4452C49.2448 25.5427 49.0325 25.5427 48.8855 25.4128C48.6568 25.2341 48.4281 25.0555 48.1831 24.8931C48.0524 24.7957 48.0034 24.6171 48.0851 24.4709C48.9345 23.0906 49.7348 21.5642 50.6822 19.7455C52.7239 15.8158 54.1449 11.5937 54.9126 7.20933C55.1086 6.10511 54.3573 5.06584 53.2466 4.87098C52.1359 4.67612 51.0905 5.42309 50.8945 6.52731C50.2085 10.5058 48.9181 14.3218 47.0561 17.8943C46.0107 19.9241 45.194 21.4668 44.3283 22.7984C44.1487 23.0744 43.822 23.2368 43.4953 23.2043C43.1686 23.1718 42.8256 23.1556 42.4663 23.1556H19.7623C19.403 23.1556 19.0436 23.1718 18.6843 23.2043C18.3576 23.2368 18.0473 23.0906 17.8676 22.8146C16.9202 21.4343 16.0545 19.8592 15.0255 17.8781C13.1798 14.3218 11.8731 10.5058 11.1871 6.51107C10.9747 5.26071 9.65168 4.48125 8.41031 4.98465C7.49562 5.3419 7.02194 6.33245 7.18528 7.29053C7.95297 11.6425 9.37401 15.832 11.3994 19.7455C12.3468 21.548 13.1634 23.0419 14.0291 24.3897C14.1598 24.5846 14.1108 24.8606 13.9148 24.9906C13.7025 25.1529 13.4901 25.2991 13.2778 25.4777C13.1308 25.5914 12.9348 25.6076 12.7878 25.4939C12.4611 25.2666 12.1344 25.0393 11.8077 24.7957C8.62265 22.4573 5.81324 19.6481 3.46117 16.4491C2.82415 15.5884 1.59912 15.2961 0.684428 15.8807C-0.311934 16.514 -0.556941 17.8456 0.129078 18.7874C2.74249 22.3437 5.84591 25.4615 9.37401 28.0596C9.58635 28.222 9.79869 28.3682 10.011 28.5143C10.354 28.7579 10.4684 29.1801 10.3214 29.5536C10.109 30.1057 9.94569 30.6903 9.83135 31.2749C9.73335 31.8108 9.178 32.1355 8.65532 31.9407C6.28692 31.08 4.03286 29.9271 1.94213 28.5143C1.15811 27.9947 0.0964114 28.2545 -0.360935 29.0989C-0.736612 29.8296 -0.458937 30.7065 0.227082 31.1612C2.56282 32.7201 5.07822 33.9867 7.72429 34.9448C8.0183 35.0422 8.31231 35.1559 8.60632 35.2533C8.85133 35.3345 9.24334 35.4482 9.53735 35.5456C9.81502 35.6268 10.0437 35.8379 10.1254 36.114C10.6513 37.7882 11.6068 39.2805 12.876 40.4578C14.4489 39.5663 16.2767 38.6667 18.3086 37.6891C19.1612 37.2718 20.0939 36.9486 21.0461 36.7781C21.1033 36.5102 21.1752 36.2406 21.265 35.9678C21.9837 33.8081 23.5354 32.4603 25.8548 31.9894C26.2468 31.8919 26.6388 31.8919 26.7695 31.8757C28.3702 31.8757 29.5626 32.3141 30.6079 33.1261C30.951 33.3859 31.1796 33.5158 31.588 33.191C34.4137 30.9663 38.0235 31.7945 39.8529 33.9218C40.5781 34.7581 41.0322 35.7502 41.2233 36.7797C41.1971 36.7749 41.171 36.7716 41.1432 36.7668C42.1445 36.9405 43.1327 37.2718 44.0343 37.7053C46.1381 38.6488 47.8368 39.6085 49.3118 40.4659C50.5874 39.2854 51.5593 37.7736 52.0869 36.0653C52.1685 35.7892 52.3972 35.5781 52.6749 35.4807C55.9417 34.4901 59.0287 33.0286 61.8545 31.1125C62.5895 30.6091 62.7692 29.6185 62.2465 28.8878ZM20.0955 26.2994C19.8146 26.189 19.5108 26.1256 19.189 26.1256C18.8672 26.1256 18.5634 26.189 18.2841 26.301C18.2678 26.2344 18.258 26.1646 18.258 26.0932C18.258 25.5735 18.6826 25.1676 19.189 25.1676C19.6953 25.1676 20.12 25.5898 20.12 26.0932C20.12 26.1646 20.1102 26.2328 20.0955 26.2994ZM39.8529 26.9554C37.3538 28.2383 34.5444 29.2938 30.7713 29.2938C26.9982 29.2938 24.1888 28.2383 21.706 26.9554C21.314 26.7606 21.461 26.1597 21.902 26.1597H39.6569C40.0979 26.1597 40.2449 26.7443 39.8529 26.9554ZM43.2568 26.2994C42.9759 26.189 42.6721 26.1256 42.3503 26.1256C42.0285 26.1256 41.7247 26.189 41.4454 26.301C41.4291 26.2344 41.4193 26.1646 41.4193 26.0932C41.4193 25.5735 41.8276 25.1676 42.3503 25.1676C42.873 25.1676 43.2813 25.5898 43.2813 26.0932C43.2813 26.1646 43.2715 26.2328 43.2568 26.2994Z" fill="white"/>
<path d="M30.7721 29.2938C34.5452 29.2938 37.3546 28.2383 39.8537 26.9554C40.2457 26.7443 40.0987 26.1597 39.6577 26.1597H21.9029C21.4619 26.1597 21.3148 26.7606 21.7069 26.9554C24.1896 28.2383 26.999 29.2938 30.7721 29.2938Z" fill="#949597"/>
<path d="M42.3519 26.1273C42.6721 26.1273 42.9775 26.1906 43.2585 26.301C43.2748 26.2344 43.283 26.1662 43.283 26.0948C43.283 25.5914 42.8746 25.1692 42.3519 25.1692C41.8292 25.1692 41.4209 25.5752 41.4209 26.0948C41.4209 26.1662 41.4307 26.2361 41.447 26.3026C41.728 26.1906 42.0318 26.1273 42.3519 26.1273Z" fill="#949597"/>
<path d="M19.1908 26.1273C19.5109 26.1273 19.8164 26.1906 20.0973 26.301C20.1137 26.2344 20.1218 26.1662 20.1218 26.0948C20.1218 25.5914 19.7135 25.1692 19.1908 25.1692C18.6681 25.1692 18.2598 25.5752 18.2598 26.0948C18.2598 26.1662 18.2696 26.2361 18.2859 26.3026C18.5668 26.1906 18.8706 26.1273 19.1908 26.1273Z" fill="#949597"/>
<path d="M38.9869 42.2197C38.6276 42.3334 38.3009 42.512 38.0232 42.7718L37.6312 43.1128C37.5332 43.194 37.4189 43.2427 37.2882 43.2427C37.1576 43.2427 37.0105 43.194 36.9125 43.0803L36.2102 42.3009C36.1122 42.1872 36.0795 42.0573 36.0795 41.9274C36.0795 41.7813 36.1449 41.6513 36.2429 41.5701L36.6349 41.2291C36.6512 41.2291 36.6675 41.2129 36.6675 41.2129L36.0469 40.3847C35.8672 40.1574 35.9162 39.8326 36.1449 39.6702L36.4879 39.4104C36.4715 39.3779 36.4552 39.3617 36.4389 39.3292L35.8999 38.4361C35.8182 38.3224 35.8018 38.1763 35.8345 38.0464C35.8672 37.9002 35.9489 37.7866 36.0632 37.7216L36.5042 37.4456C37.3862 36.9097 38.3663 36.6336 39.624 36.6336C40.145 36.6336 40.6824 36.684 41.223 36.7798C41.0319 35.7502 40.5778 34.7597 39.8526 33.9218C38.0232 31.7945 34.4135 30.9664 31.5877 33.1911C31.1794 33.5158 30.9507 33.3859 30.6077 33.1261C29.5623 32.3142 28.37 31.8757 26.7693 31.8757C26.6386 31.892 26.2466 31.892 25.8546 31.9894C23.5352 32.4603 21.9835 33.8081 21.2648 35.9678C21.1749 36.2407 21.1014 36.5118 21.0459 36.7814C21.0492 36.7814 21.0508 36.7814 21.0524 36.7814C21.1668 36.7652 21.2811 36.7489 21.3791 36.7327H21.4118C21.4608 36.7327 21.5098 36.7164 21.5588 36.7164C21.6568 36.7002 21.7548 36.684 21.8528 36.684C21.9181 36.684 21.9998 36.6677 22.0651 36.6677C22.1631 36.6515 22.2448 36.6515 22.3428 36.6515H22.8328C22.9145 36.6515 22.9962 36.6677 23.0778 36.6677C23.1595 36.6677 23.2412 36.684 23.3228 36.684C23.4045 36.7002 23.4862 36.7002 23.5678 36.7164C23.6495 36.7164 23.7312 36.7327 23.8128 36.7489C23.8945 36.7652 23.9762 36.7976 24.0742 36.8139L24.1069 36.8301C24.1559 36.8464 24.2212 36.8626 24.2865 36.8788C24.3682 36.9113 24.4499 36.9275 24.5315 36.96H24.5479L24.5969 36.9763C24.6622 36.9925 24.7112 37.0087 24.7602 37.025C24.8419 37.0575 24.9399 37.1062 25.0215 37.1386L25.0379 37.1549L25.0869 37.1711C25.1359 37.1874 25.1685 37.2036 25.2176 37.2198C25.3482 37.2848 25.4789 37.3497 25.6096 37.4309C25.6259 37.4472 25.6422 37.4472 25.6586 37.4634L26.0996 37.7395C26.3446 37.8856 26.4099 38.1942 26.2629 38.4377L25.7239 39.2821C25.7076 39.3146 25.6912 39.3471 25.6749 39.3633L26.0179 39.6231C26.2466 39.7855 26.2792 40.1103 26.1159 40.3376L25.4952 41.1658L25.5116 41.182L25.9036 41.5231C25.9689 41.588 26.0179 41.6692 26.0506 41.7504C26.0506 41.7829 26.0669 41.7991 26.0669 41.8154C26.0832 41.9777 26.0506 42.1401 25.9362 42.2538L25.2339 43.0332C25.1359 43.1469 25.0052 43.1956 24.8582 43.1956C24.7439 43.1956 24.6132 43.1469 24.5152 43.0657L24.1232 42.7247C24.0579 42.6598 23.9925 42.611 23.9272 42.5623C23.9108 42.5623 23.8945 42.5461 23.8945 42.5461L23.8618 42.5298C23.8292 42.4974 23.7802 42.4649 23.7312 42.4324C23.6985 42.4162 23.6822 42.3999 23.6495 42.3837C23.6168 42.3675 23.5678 42.335 23.5188 42.3187L23.4862 42.3025C23.4698 42.3025 23.4535 42.2863 23.4372 42.2863C23.3718 42.27 23.3228 42.2376 23.2575 42.2213C23.2085 42.2051 23.1758 42.1888 23.1268 42.1726C23.0778 42.1564 23.0288 42.1564 22.9798 42.1401C22.9308 42.1239 22.8982 42.1239 22.8492 42.1076C22.8001 42.1076 22.7675 42.0914 22.7348 42.0914C22.6989 42.0914 22.6629 42.0833 22.6254 42.08C22.6629 42.1158 22.6956 42.1531 22.7348 42.1888C25.3156 44.5921 28.0433 46.8493 30.6894 49.1877C31.0324 49.4962 31.2447 49.48 31.5714 49.1877C34.1685 46.9305 36.7982 44.7221 39.3463 42.4162C39.4623 42.3106 39.5717 42.2002 39.6779 42.0882C39.441 42.1076 39.214 42.1515 39.0033 42.2213H38.9869V42.2197Z" fill="#FFDD2D"/>
<path d="M25.0218 37.137C22.869 36.213 20.3585 36.6856 18.3086 37.6891C16.2767 38.6667 14.4489 39.5663 12.876 40.4578C12.9854 40.5601 13.0981 40.6608 13.2125 40.7582V40.7647C14.707 39.9284 16.391 39.1457 18.16 38.3776C18.7757 38.0253 19.4634 37.7297 20.1788 37.5202C20.2246 37.5008 20.2703 37.4813 20.3177 37.4618L20.3242 37.4796C22.036 37.0071 23.9013 37.0282 25.3811 37.9165L25.8221 38.1925L25.2831 39.0856L24.8421 38.8096C23.7625 38.1503 22.2352 38.0529 20.6737 38.4686C20.7325 38.6407 20.7913 38.8145 20.8501 38.9866C22.5635 38.631 24.1202 38.8745 25.2668 39.7352L25.6915 40.0437L25.0545 40.8719L24.6298 40.5633C23.5926 39.7839 22.3136 39.7514 21.185 39.9723C21.2519 40.1704 21.3189 40.3669 21.3859 40.565C22.9017 40.3636 24.1692 40.7095 25.1672 41.6026L25.5592 41.9436L24.8568 42.7231L24.4648 42.3821C23.7004 41.6984 22.7285 41.4419 21.5345 41.5977C18.8345 42.2473 17.8659 43.0154 17.8659 43.0154C18.1632 43.069 18.4638 43.1128 18.7692 43.142C19.5745 42.7864 20.4173 42.4438 21.2797 42.1222C22.1862 41.9745 23.1695 42.0086 23.9258 42.5607C24.1822 42.7442 24.5154 43.1615 24.8519 43.194H24.9303C25.0316 43.1842 25.1329 43.1372 25.2325 43.0316C25.8368 42.3155 26.6029 41.9274 25.4938 41.1642C25.9479 40.5049 26.7352 39.9495 25.6735 39.3617C25.6849 39.3455 26.2338 38.4767 26.2615 38.4361C26.647 37.7395 25.4661 37.392 25.0202 37.137H25.0218Z" fill="#949597"/>
<path d="M44.0343 37.7054C41.5124 36.494 38.3142 36.0685 36.0634 37.7216C35.4084 38.1211 36.3035 38.9834 36.4881 39.4104C35.4166 40.0048 36.2137 40.5471 36.6678 41.2129C36.6678 41.2129 36.6514 41.2292 36.6351 41.2292C36.3199 41.4744 35.8315 41.8738 36.2104 42.3009C36.4358 42.4958 36.7543 43.0219 37.1039 43.194H37.5204C37.558 43.1729 37.5939 43.1469 37.6315 43.1128C38.7716 41.8105 40.5601 41.9209 42.0743 42.4958C42.5479 42.6858 43.0477 42.9001 43.5606 43.1339C43.8416 43.1047 44.1192 43.0657 44.3937 43.0154C44.4688 43.0528 41.7541 41.7926 40.7349 41.5864H40.7185C40.7185 41.5864 40.7185 41.5832 40.7185 41.5815C39.4723 41.4094 38.4645 41.679 37.6788 42.3821L37.2868 42.7231L36.5845 41.9437L36.9765 41.6027C38.0316 40.6592 39.389 40.3295 41.0207 40.6072C41.0844 40.4237 41.1481 40.2402 41.2102 40.0551C40.0162 39.7742 38.6082 39.7417 37.4828 40.578L37.0581 40.8865L36.4211 40.0584L36.8458 39.7498C38.0545 38.8437 39.7255 38.6196 41.545 39.0629C41.6022 38.8892 41.6594 38.7138 41.7165 38.5401C40.0701 38.0464 38.4383 38.1146 37.3015 38.808L36.8605 39.084L36.3215 38.1909L36.7625 37.9149C38.2946 36.9941 40.2824 37.0055 42.053 37.5122C42.053 37.5122 42.053 37.5105 42.053 37.5089C42.0612 37.5122 42.0677 37.5154 42.0759 37.5187C42.8011 37.7281 43.4904 38.0204 44.0964 38.3663C45.8392 39.1311 47.484 39.9414 48.9785 40.7712C49.0929 40.6722 49.204 40.5715 49.3134 40.4676C47.8368 39.6086 46.1365 38.6489 44.0294 37.7038L44.0343 37.7054Z" fill="#949597"/>
</g>
</g>
<defs>
<linearGradient id="paint0_linear_452_4345" x1="31" y1="0" x2="31" y2="62" gradientUnits="userSpaceOnUse">
<stop stop-color="#8D4AF8"/>
<stop offset="1" stop-color="#532C92"/>
</linearGradient>
<linearGradient id="paint1_linear_452_4345" x1="31" y1="0" x2="31" y2="62" gradientUnits="userSpaceOnUse">
<stop stop-color="#8D4AF8"/>
<stop offset="1" stop-color="#532C92"/>
</linearGradient>
<clipPath id="clip0_452_4345">
<rect width="62" height="55" fill="white" transform="translate(0 2)"/>
</clipPath>
</defs>
</svg>
