<svg xmlns="http://www.w3.org/2000/svg" width="18" height="16" viewBox="0 0 18 16" fill="none">
<path d="M9 16C8.54193 16 8.12071 15.8729 7.74513 15.6221C5.67765 14.5999 0 10.7392 0 5.95385C0 2.67131 2.69228 0 6.00059 0C7.0624 0 8.08912 0.275142 9 0.799303C9.91088 0.275142 10.9394 0 11.9994 0C15.3077 0 18 2.67131 18 5.95385C18 10.7392 12.3223 14.6017 10.2549 15.6221C9.87929 15.8729 9.45807 16 9 16ZM6.00059 1.4889C3.51892 1.4889 1.50059 3.49151 1.50059 5.95385C1.50059 7.99478 2.91517 9.87549 4.1016 11.0927C5.61271 12.6426 7.39236 13.7954 8.45593 14.3108L8.56299 14.3753C8.828 14.5633 9.17024 14.5633 9.43526 14.3753L9.54232 14.3108C10.6076 13.7936 12.3873 12.6426 13.8966 11.0927C15.0831 9.87549 16.4977 7.99652 16.4977 5.95385C16.4977 3.49151 14.4793 1.4889 11.9977 1.4889C11.0745 1.4889 10.1864 1.76752 9.42648 2.29168L9 2.58946L8.57001 2.29168C7.81182 1.76578 6.922 1.4889 6.00059 1.4889Z" fill="white"/>
<path d="M6.00059 1.4889C3.51892 1.4889 1.50059 3.49151 1.50059 5.95385C1.50059 7.99478 2.91517 9.87549 4.1016 11.0927C5.61271 12.6426 7.39236 13.7954 8.45593 14.3108L8.56299 14.3753C8.828 14.5633 9.17024 14.5633 9.43526 14.3753L9.54232 14.3108C10.6076 13.7936 12.3873 12.6426 13.8966 11.0927C15.0831 9.87549 16.4977 7.99652 16.4977 5.95385C16.4977 3.49151 14.4793 1.4889 11.9977 1.4889C11.0745 1.4889 10.1864 1.76752 9.42648 2.29168L9 2.58946L8.57001 2.29168C7.81182 1.76578 6.922 1.4889 6.00059 1.4889Z" fill="white"/>
</svg>