<svg width="9" height="9" viewBox="0 0 9 9" fill="none" xmlns="http://www.w3.org/2000/svg">
<g clip-path="url(#clip0_453_4183)">
<path d="M0.75 4.5C0.75 2.73223 0.75 1.84835 1.29918 1.29918C1.84835 0.75 2.73223 0.75 4.5 0.75C6.26775 0.75 7.15166 0.75 7.70081 1.29918C8.25 1.84835 8.25 2.73223 8.25 4.5C8.25 6.26775 8.25 7.15166 7.70081 7.70081C7.15166 8.25 6.26775 8.25 4.5 8.25C2.73223 8.25 1.84835 8.25 1.29918 7.70081C0.75 7.15166 0.75 6.26775 0.75 4.5Z" stroke="#5A3FD1"/>
<path d="M6.375 5.625H5.4375H4.5" stroke="#5A3FD1" stroke-linecap="round"/>
<path d="M2.625 3.75L2.7129 3.82324C3.19353 4.22377 3.43385 4.42402 3.43385 4.6875C3.43385 4.95097 3.19353 5.15122 2.7129 5.55176L2.625 5.625" stroke="#5A3FD1" stroke-linecap="round"/>
</g>
<defs>
<clipPath id="clip0_453_4183">
<rect width="9" height="9" fill="white"/>
</clipPath>
</defs>
</svg>
