<svg width="800" height="800" viewBox="0 0 800 800" fill="none" xmlns="http://www.w3.org/2000/svg">
<path d="M66.6666 700H333.333C342.174 700 350.652 696.488 356.903 690.237C363.155 683.986 366.667 675.507 366.667 666.667C366.667 657.826 363.155 649.348 356.903 643.096C350.652 636.845 342.174 633.333 333.333 633.333H102.367C110.455 577.827 138.238 527.082 180.642 490.364C223.045 453.645 277.241 433.403 333.333 433.333C372.582 433.674 410.714 420.272 441.119 395.449C471.524 370.627 492.287 335.949 499.809 297.426C507.33 258.903 501.137 218.962 482.302 184.526C463.467 150.089 433.178 123.328 396.683 108.879C360.189 94.4305 319.789 93.2053 282.486 105.416C245.183 117.627 213.328 142.503 192.441 175.735C171.554 208.967 162.951 248.459 168.125 287.367C173.298 326.275 191.921 362.148 220.767 388.767C165.44 411.211 118.059 449.636 84.6735 499.135C51.2881 548.635 33.4138 606.961 33.3333 666.667C33.3333 675.507 36.8451 683.986 43.0964 690.237C49.3476 696.488 57.826 700 66.6666 700ZM333.333 166.667C353.111 166.667 372.445 172.532 388.89 183.52C405.335 194.508 418.152 210.126 425.721 228.398C433.29 246.671 435.27 266.778 431.412 286.176C427.553 305.574 418.029 323.392 404.044 337.377C390.059 351.363 372.24 360.887 352.842 364.745C333.444 368.604 313.338 366.623 295.065 359.055C276.792 351.486 261.174 338.669 250.186 322.224C239.198 305.779 233.333 286.445 233.333 266.667C233.333 240.145 243.869 214.71 262.623 195.956C281.376 177.202 306.812 166.667 333.333 166.667ZM766.667 533.333C766.667 542.174 763.155 550.652 756.903 556.904C750.652 563.155 742.174 566.667 733.333 566.667H500C491.159 566.667 482.681 563.155 476.43 556.904C470.178 550.652 466.667 542.174 466.667 533.333C466.667 524.493 470.178 516.014 476.43 509.763C482.681 503.512 491.159 500 500 500H733.333C742.174 500 750.652 503.512 756.903 509.763C763.155 516.014 766.667 524.493 766.667 533.333Z" fill="#6D55D2"/>
</svg>
